<mxfile host="app.diagrams.net" agent="Mozilla/5.0 (Windows NT 10.0; Win64; x64) AppleWebKit/537.36 (KHTML, like Gecko) Chrome/134.0.0.0 Safari/537.36" version="26.2.12">
  <diagram name="第 1 页" id="pP-2XjLIVrxQnaoe8F_Q">
    <mxGraphModel dx="1892" dy="1109" grid="0" gridSize="10" guides="1" tooltips="1" connect="1" arrows="1" fold="1" page="1" pageScale="1" pageWidth="1654" pageHeight="2336" math="1" shadow="0">
      <root>
        <mxCell id="0" />
        <mxCell id="1" parent="0" />
        <mxCell id="V7aKo0qsAvX8QTe993iU-288" value="" style="rounded=0;whiteSpace=wrap;html=1;fillColor=#F5F5F5;fontColor=#333333;strokeColor=#666666;dashed=1;" vertex="1" parent="1">
          <mxGeometry x="823" y="643" width="395" height="627" as="geometry" />
        </mxCell>
        <mxCell id="V7aKo0qsAvX8QTe993iU-313" value="" style="rounded=0;whiteSpace=wrap;html=1;fillColor=#d5e8d4;strokeColor=#82b366;" vertex="1" parent="1">
          <mxGeometry x="850" y="650" width="349" height="131.58" as="geometry" />
        </mxCell>
        <mxCell id="V7aKo0qsAvX8QTe993iU-284" value="" style="edgeStyle=orthogonalEdgeStyle;rounded=0;orthogonalLoop=1;jettySize=auto;html=1;" edge="1" parent="1" source="V7aKo0qsAvX8QTe993iU-195" target="V7aKo0qsAvX8QTe993iU-282">
          <mxGeometry relative="1" as="geometry" />
        </mxCell>
        <mxCell id="V7aKo0qsAvX8QTe993iU-195" value="" style="rounded=0;whiteSpace=wrap;html=1;strokeColor=#FFE599;dashed=1;dashPattern=8 8;strokeWidth=2;" vertex="1" parent="1">
          <mxGeometry x="832.43" y="911.58" width="357.57" height="196.42" as="geometry" />
        </mxCell>
        <mxCell id="V7aKo0qsAvX8QTe993iU-64" value="" style="shape=trapezoid;perimeter=trapezoidPerimeter;whiteSpace=wrap;html=1;fixedSize=1;direction=north;fillColor=#ffe6cc;strokeColor=#d79b00;" vertex="1" parent="1">
          <mxGeometry x="1177.000239390642" y="461.3856205420828" width="48.9532100108814" height="100.42796005706134" as="geometry" />
        </mxCell>
        <mxCell id="V7aKo0qsAvX8QTe993iU-4" value="" style="shape=trapezoid;perimeter=trapezoidPerimeter;whiteSpace=wrap;html=1;fixedSize=1;direction=south;fillColor=#D4E1F5;" vertex="1" parent="1">
          <mxGeometry x="276.00023939064204" y="458.87562054208274" width="48.9532100108814" height="100.42796005706134" as="geometry" />
        </mxCell>
        <mxCell id="V7aKo0qsAvX8QTe993iU-29" value="" style="edgeStyle=orthogonalEdgeStyle;rounded=0;orthogonalLoop=1;jettySize=auto;html=1;" edge="1" parent="1" source="V7aKo0qsAvX8QTe993iU-1" target="V7aKo0qsAvX8QTe993iU-2">
          <mxGeometry relative="1" as="geometry" />
        </mxCell>
        <mxCell id="V7aKo0qsAvX8QTe993iU-1" value="" style="shape=image;verticalLabelPosition=bottom;labelBackgroundColor=default;verticalAlign=top;aspect=fixed;imageAspect=0;image=data:image/png,iVBORw0KGgoAAAANSUhEUgAAAFMAAABTCAYAAADjsjsAAAAAAXNSR0IArs4c6QAAAARnQU1BAACxjwv8YQUAAAAJcEhZcwAADsMAAA7DAcdvqGQAADAySURBVHhe7ZxpkFzXdd/P9Dr7AsxgXweLREpkKEoqitCWSDEjR7KkchbJW+xIFZWdKqeSSpwPqkRGnFRUrnKSshM6JVtSUiW7KonWULYsO7FZSixSNmmJBE2CBEkQBDAABgNgMJh9enom/9//vDsD52u+5va8fu/de/Zz7rnnvu6ennZv3+bGxkZsbmxG1HqCV61WC/q43tSL+56I6G52BRdRFxzgEbop8N1uXtdrOm8KH4DEj83N6IEAVDbpM0Q06vXEy8Gtxi18gKtDW/jGFU5KyFXy5kCeLjoIrEfIwDeMBzx0wK9pXHLoyk1wmxpnhDfElqYaB194HkfuygqVCObBhQkB200YDdh8hhCxek8aAsEMqiH6uhvd6HQ7ZlqERVuY1QCS4TY592DE7pYhQVgXDGaGQRE0JEC70RCJNEmtVheduq5QAMjKEKKHwslCjtQgVC2d5LLs4tGRQ5DLsugeBwALvS1HiA40cfa6zpuSE93EOerqq/UgD3QyWHAA79BbM336kVMXJic9JVMNGuoDuqfZaoMhYFyTngIeGehDmRxH9IwAxlHGQGrFgzDa8rZgawjFvTpgmooR6XWx2lCkSzkkg14yrDCBAqcn1nGsorkoWHgB1VRkY8jESDnBwZmAWEH1c6YRrUlvmxeG6OreXbrvER9u6OtvtWKlsy6aChLJYAAA1Zi5zEg6uWZMdyah425lamYMIooznCO0iisEuAZG95DF8927o3J9XX26VGMMpsWgnIlAG0aHI7viYliNg0vENupVhEkh4LnGtJ3uumkJwyfgjWOZkSjji4aBMRA86MO5yG7+6jZdMHQNFG8rHc1GXVhVmvGzEf3A5AxCTrQxsqaGboC1L8V4vZuRsy6B5Rg1opJwTzjdigCCZX7B/41624QRH5owaEqxVr1hPI8BKzoF1/jWAKIcimBRIGKgQ1/mb9Fv1KuZ0SNempZEixuj5R1ScqJ4ZBpKeVG+YfdlGnAK0d2qHI5gJJwm091ibEZTvGwLXSO/6epIRyr1yTbIs53T1e9pjpK6J2xLvkxUBMwXvXgBJRzWakBgCAsmgQxU6Ze5DtErkyi/FFwbwcZiFKXuahpiMQTXC4voEJGlbU9tGlNNKUMylAVUQpp2I1cU62N0hlEcZ3BreXMGkI4wIIaHH7YpfQgELPpspyS/VUdq4HzqiJQAxEhHXkKwBgIKCA9wzxjEQMgcaNPKkDrLkOsoL7rwgGFZUDBekygQNI3IzpwnGhvKRTgPehqzaRnTDfjoSsrgniixFBpfrwy5blq6oM8zhmtLmq8u+nRiw/3bBtObeFKV5OwgnTk12fHiIhiCAzTSArPAhoQBh/qIYi9ygoI+jjdeS5HpqVcxwhyoxnUmfY2JMQ2CZuC7bOA1ENR4iCMcvK8+hPR0NX08m/AWyg1+eZ1GzutUgHsckSknZWERqWt1VerRi+izwcH3qC9MEl5UElbaxkpOMqMdzp0N6sBJh5GDEa+pIFhfl84VHTxKcCB75v6kZwMzrBN4tfQlqxrlgRAIfaJGBBC0CwO9EN5TBiw1q6BQrNeYuhkdGJqD8iO9aVA3LjsaA4/phKEQlWlLgyrRAxwszAZ4HTaq4SNWJQ/RhHFBgg/KFPnaWoFrkqmDQ8EBxlyh7yVPV0ATYZLJBu1RFGeZQ7zZBpQ9GgemKz3RD2PimGYj5cHp1MqpnfTKMkJolZVhSFRVxo9Wo2XWeIGDvl4JLHryMsaVcvIkuhEF4maloEkU0TIaEVSR5WhCcA/ZaJk2qms46IyQKOlShl7TRwamv3J3FVHwAYdr0hALJimElr1cwDlnCsb0NNcLWswqHJaGZJTDSDYkY3aYrqlFubA+jNqR6ihsmu1eX2JxM2BaCKMpoK1imD4TFSjIJkRcgYojCoNsGD3vq+ld3ZdpQUO9NGE2+HBsaEqT8IHkMFXh4uCcroVG4ZdQGD7tTsTZJWlcOQ4YDOdWkQA7Rcwo9WKnPAsdjM6Qi3F4C94zruKN0YnoEmS5uUBv6OkK67tkEBlySccLRBbL3tWYswyjE0JzW683HZ2SASoiCvmcbhiRBgNEw/Ol3IFW+lrjVYQ5Ylhc1C2OqZRoIJcXIPgKjoIFiijHVC70t1ZpHTn1sBPuTkOpVDXfDFKQgIRo6sY0hwC6GAd46wYPpMMyCjLk1RhlVLoNGGgJPUsjLKxBEc5uGsg0hMzopCONSqu8KS/aAXq3NDROggPWk6bqzuZB6+NpZ+0wRkYF4zgFIxKIjgbRIU91vBBxVplVyQMhlDGm3nBYpoZsWzLo8HQVD3iSDqyT+nF81tkpV1Ir72bv/rsbciB/QqScNQgBnNs7FMrS1oTUxxiNEsWJWS8WJ4hnNOAbIgwjVIxNE2HUoc6maELPHrRUKKiXDZmR5HyrlgaFfu7CZKqoax+/SsrRa52pKBq8WHWJHPjVJRO6sFggE5iws5EEj7sJFagz60gB4GPgQo+IA6JM7xI44HKflQlO5B79tejKwfACtqdBaWSMomhpEJSgVR8KU+Nl1NCTBD21q5wBDv1IhYkNqxeCwqylqYEz7VHwgC1Nl2lINQmMoJ6mkgG6SYnG4iPjrme5BGLyEQ8iVnLa5SgpgxU8+LtOJmrNRiN2AukKelWkWhGil8vEtSGFS/Bwj+MzjTFjk45nWUOCIBBDG4SfrovoHqrOFPQ2rEBK1PG0BTi8sy2cBMK4YOqttim/CQ9BeVqDUlkOgSPQZJJnHfZw9viauxKt9Ektn3MmEN3AZXQ2FcFlpm3zBI9pCBb9utZVXytzdUdGyFTFuN4d2Wl8ejAi5R+6eddkrNSXawycM1n8CBIGnGQFI3SDpleo5xqOBDf3EXEm412G1ZNxpJKiQh7TPa2HKSpATx26ENKGZSXEqOnhBMcwBVAKKp9tNRyA11UDM0pJ5JwoeKZrTr/cgfg5gmCKg6Dn3OrLNBK7NVbi5bVMa45knf1SvyNNcEBDh8W061ILbI0QLLIRMBlSaXhY9tSbrU3nDB0IBpIjrwgkFGSvaz7Qg9EtOIxNOHG2z7T09N0jvGFY6DrQGFGfnalIRmmMhjPglNO7GI8Fh4VlmyLvzAxyaMqLo7iGSUVDgqfz02lpMmrnplOWZ5IqEq/o6qehm+UTYLEJwcKit6Ut42rEI3jgMOIZ5Cmje09RU0mCICFUo44QOe1I+EylUn6AgzOABJdxrpsSGEGkir0LsZoUtcM4yzCeOqZcngswXclPjHe1pevE2vqqebGwQBdZmc4uqdwHaaQUD5Fm94YRyYW58IDDXj+DANres+sasbOCSVnySZNkQkaNOWWILuOZvnLHZqcbJgMDHJyttCKjSChMwPTB+Rl9CJZIrPCiZzhomAhaqJMpk8mYA+OKuv7WJDCgLTEnVdCyGMcpCJgkgae+ZNeSU6oba2urHhsZbsfEjh05s/zUKWLn2HDc88bj0WrnbgRlMFnSQ9ZML8ivobx2hGb0w5+RDIaihXZ1TaUzy5pGA4YHwj3YxzDYInWFp2eSEDkwNLNGutROQwxkCMHK97rISI2YGBuLucVFEe6JtohDECPzwtMk4BSAKK8e7YsAL7zsiKPLvWClSnDi4xD3pRDuB7bR34of+cAHY9fYeNy6Padp2YmJPbtiYt/eeMPkiTh+YF9cuHrd0QsORmQd9CzTPa4l+gfb7VjtrImD9Klkh76jz3yJ0FxCcGbqJAMKpjiqI2IN7Vby2YXoyKue4o5q6GJ40cmnRhpSR5YNREoJbcQyS6GmGWy0SvMiiBug2e3miBY+XXh8k+hDCd0zBeFBYi9oxbw2Rl89fu6nPxFPPPV0HD5wPJ55+sn44A+9P0LROLFjd1y7OhU378zH+upqfPeJ78WNuXnJkhFDpHiFl6JJUm+WS2dymc4pN2fKL2Zd5kwM1Gy2lAbWBMYUzqjOJlwiVfpSsQL9fzdCyhflU0KmNl2OLggS9gJjm9VQsrZHsQq9GBI4M9Khc6n9fNIZoT3GfXWdhhQ/0OiuBMOQbU23T3/q52Nudi5OHDoS169cjBNvOBn9I4OCUK3aasb+gwdjoK8V7d5WvP2hBx0IyGtelkdN51wguebIgIA/D2mgRaQRw6SxsmmwIWmCc3C5mYBpsshxzcYFGs6d1kL0NGEd3jDGM/kEKHfAPTKajauGUXNqZ4TC3GWHIqI8OadxDUrCqa8yngVQP1A81rOw7t2mV++vxz/7h/8kNjSvWHH7+wbiwftOxkc/9EhsqEhfWFiEg+U7MTkZ7f7BePncea/2KOmpJog85/awzB6nMBubSiR14t06SYftKY5RU/akpubUYMpbtXLXT50xKqEmWBETajJJAD7zYaWTcBrB0LCALatsBi3C5S6Gh7TgFYI4xI/XJE9LecX81YetgaMOhD4yQjUFJOcIob8W/+rT/zxWRPfSnRvRNzAam51u3JpfjakrU7F/z87Yv3sPqFauI3/cnL4RFy9fig+9731x74mTokNxDWXoY4CMNq7pzoVyO4I5ZURn6kEO9HJeFRb3ZUFLurqXMp61nurorrSosx3RrLdOM0bW8N5cXm+ZaN5Dg22gldc7kVT5QkZKRi2VKq4ETBIYwUsoYAB3mSIHZdlhQlYAWjxIbg7W41c/80tx4eKMFpvp6FnviekbU9Fo1WKluxJTMtrkoUnPEhYHhP/N//rlePaZH8QPP/KBWFlfiZHRYZfSt+bumA9Pd4ginJkyI4P0Uz93uZdH2tJkeAnFfa7YiubqGnxg03hpCw7SEjMx6YpPfm7OEO/JlkPDQkylec6Hd9nDgli876ZxvFOYkSZ45O9cqz6MzYrNAgRsUYwr7WWjOVCPXzn92bh6aTpuzt6KhZXlWFmZj/vJk4OjzCxFsxQSOZdqMuU3Hnsszrx0Nh5553t5FuadmEd0fv211+L8xUsypFhgTLV8ICIXYFvLmv2WQXJ6sbJcaTjswD2zLKOTByx3b1KqxmVRR61GHZi2UY2lqHTupDRAPEeTLuVFThiXfrO1x7hl+iKoBBQQDxgYYBUkUteU0HNlxYMg6FKEBgfa0dm3Gf/5N34zbl6bjaXF+XjptYtx/vKFeOtbHoz20A7z64hPrckMkFN1/NbXH4s/lyH/+l9+j6yEw9TfxCjIrwW/t88G0yWMMpIlC7y9UAmlPKJzxKmiwEmGVwB5glvOsjGRHtKPcQzPzCWYKI4SiRqzWnN4RtgDAP1qFNZr1YIBYGHCOEJZTMEgPFCs8G0dWTIwpDHBsPrzFRhJWtFQ4wJFpRTi/c/Pfzf+1t/4ybg8fVFljnY7ndvKf39VBXQzmj3Ki1ICddakLIvM6y+/quNc/NSP/micPHpC/DOdNJQ/4c+nni+++rJlsJWJQFuR2YQoOJ4HLdpCin+bXUAKrZOoYWz1gw698pTetNEXJ4gW9wQKtgCPLS9R3FNvtODqcMaT5BvKG8iKt4HxRIpXmUUES3lEM9lK/vI4DjobrNoeoCVzcmRjsBG//Au/GANDQ/H0mafj1z/3xXjvu0/Fux8+FRMT43KEIkqzwgW9ZBKRuPDy+fjS174cf/PDPxKTk8ejqxWIVf8HZ581X9rj3/uz6CwvbfO1IXOMC6covXIBkXGlg5+9GggibFyI1pyJjnDhkKNLagOXg1s/nwXbcI5cLQCKIPKKIWRER6boO7eoC8PyDktWeXNSM7TlkjN0zoQMGfIXCnFdXCBBVeC1h1rxy//0MzHUbsX//t4fx+rcarzzXaeiZ3A49uzZLU4kflZr8lXL02fu+oym91fj7/3dvyNjfjCaqjVbvaoN27W47433+OHx5StXgg9RZAqxIt/JCOJNMCETBiLquEY9+rnhCZbuuNFfpoNibM8wRtSJnvmRNjk3McDhiZrp6qi3mq3TyQD7Y7RNF85Zi3Hc1WACYb0YMWlHDlM5Synaxgbf0UnwIhhPeFrDrfj0P/iFmLs9H8+++Odx49admJq5ou3qUPy7X/oXceT40Th/XnXj2npsanFC9j958qn48jcfi0/+zI/Fex56p1bMRowMDsadhXnT3RD7dnvACo72D8XV69NpOPFtMNMsG8oKgPBRyyfm2ecZ6aaz+BEsGZe8ZyDkI8acqbRcXOU40+G+oqV2mpWYIz8+7dpzDJu6DhByBcwYTWb05ZnoKat519/dSSNSNoCLIftH+uIffeLn4saN2zF7Yzqeevk1rS7L0RgdjZ/98Y+b4qAi7t573xTnXj0vUhvx0pmz8fhTT8ZP/8TfjgcffHssaWov3FmInTtHo0+7n8XF5VhTrq2x0iKYDL1jeDCuTl9DKpkRo5K60iysB9y3FE25CFXGQFadM9eiBWfKK6oA3VH+VC/skLqpnzOw1TjLt+pMMTQd3tJgPktCrJ6JV2EsuAQxsMugzCUcCccUr4bNtNlqRP+Okfjkx34qZrVFpPx56rkzsWOgFUcOHIxHTr07NuT5uYWlWJcjO1pE3nHfm+Jbv/N4nL96IX7+k5+KN97zBhlxyfz6lE9mZ+dV1PdpweqqxtxQTXo9xsbGYuralRjfuUuRveZt4eqaDC0Z0CHzWsqWhsyoJNqQvrxTweBIVwGVwTAV+qEWOCzEOIU+B5cG6ppJMmb9tJUWMsbC8kQZU4z79GoVhaYpdGFn+aRL92FIyihC391mzT76HhmCenDmxs1YWbgdf/bC89qtTMbJ48dlkOG4JQNPDA8LOhP9QK0dT/zR4/H73//j+Mcf+7gcMeEpzZTtb9djWkY9sn8izpy/GMqa8eqF1+PkocPx+tWp2DG+U1Ha0XlcKzx1MU5aFFW9JGhX0xw9/S0OCZpPxVAg+21ibm22VCT34EQijlDqEFyqjIPAzFlNJzYzIEaksAUiWeisa6YKdw2VT6x03snwEjycWb0hksY0TTUxUufErvE4cfR49ChSZhQ9f/j0c/HwW94Se/ft17Ysn3YrW8dzr7wSy6ur0V1ZicuvXojT/+FzcfLIsVhQ9M1oWq+sLEar3YyVtW5M7t0Rl69dV2QPx53ZhTi4f6+iteat5o6hEW8Edo6NxObIiKZOQwsVZVBKxedRRCWLBvqhR4k76tnUh+XEZpDudy1I6mem+qMSvdAXvTEqzcZttVqQMIFkSasMCSW1jNQ0MttOrsxAGJQ6aywYYuIGA7127ZmIk5MnYnl5OXo1PV95/fX40F/7QPS0iYj8aiGrI/t7P5TVsXJ7Ib7x+78XH/3IR+J973qYOaWCvRlLSgG1em+Mj/bH7O1ZwfbGWZVKQ4N9MaYq4PrMtejtH4wfvPBcHNq9Xzl5Robs0WJ2QWPX48VXzssoGUHIzTOCStCMVDuVlqYtSxYaEhQsaAZGXxmVwGOcp/+2A3bSqd5stE4TcTwAhQSeYbWDMXtbLM6jekg5JkWYArYkYPjkDmfbGX197RgaGNI++Xa0VOK8eOlyfPzDH44NKegvjgIoz0CTiMfTF7QgffuJ78Tf/5mfiFPveMhROCZjzcnArXordo4PxtrckrzfG5cvX4ue/t7Yr8i/cu1yHN97OJ56/vl44+TRmJu7pdW95adODW01683eGBsalFFnxLL6ggIGcNsOGJvP+hIo1Zj7Mn759nLqTHBBIucvYxgUKvV6s32aTwOTQPIhdzDsEkJnwrt8HOoHvWKKh1y06mBhwKCMg99VvlpZXfbXsOe0Yv/khz+iUie3ZpRg0HAxLHQi9LtPPhHPnjsbv0J5dPhYLGmFxiHLq2sWZmhkIG4qVw709sfMzevCb8Ub9hxUenghjhw6EWfOvRiHDuyJ3kbbAgwPDcfFaZVcO8Zj6vrVGBvdYX435dwSBORLdjhZ9sCG/jRkFuPYgCNtAJ53OhW+PwuyUbdhXRrBiDvsDJCfuGAcWz+jtUwRf1pYMUtPcpUPBZw3TDYFamrv/OMf/ahqQUWjaPtPB7CUJ10tFr/1u9+O27evxxc++y+jb3gkukoZw319cWt+Pga1z+5TBN6eX4iJwZE4M38jBuv9cWBib1yZej2Os/BcuRi9I4NxcHR3LM7fjJHRiXjuJS1ycsprly/F4QP7YqDNfn0jZm7NxaochI6pX0abXzp7TbC+qYXfGZfBMskRAPlhnetynVNb7KdZ0KBod0dGXT560xiG0z1jGBIkjFk+faQl84wuE3RDGB44tOOR979feW1YKUT4Gma3QapoVDnzq994TPl2IX72E5+QIG2t7oMpg2bKgHJlTcacuTUTg/0jsbQ0H/v3nYz9I8MxNXU59hzcF/My8ppkOzK+J85PXdD4kXjmhWfi0MGDWrQ6MaA0wS7q9vxt75LeeHTSzz+JeHTxZz1qIuGIzN0d+mf0cTDY22pbb+CsOmMgMq6r7FaweVVWy8+t01BZoPPoixUa0DSWp4JHcjyjFQGozdzlVpNB2oPKVZpefPKY/t70c9IW8Cq+v/Z735JSy/Gpj/2Yau2WFpnlWJqbE+V1Tz0lvZjRNrK3PSyKG6oZFRFr89oyXot9k4OxvHAnFlZX4p4jx+NPXng2Dh86GC+88nwcVO06MjwqNZRzR3bE6spyDA8MqMhvR+9QfzygGpbat0eLG9FVVuVUTHLKwP7sK/9s5fKZOQ7gjMGdazkElPW3UwefTmImBt0nZZSqdQExeyfJmikGr7lYT8OTT3N1pFWpQDuRe44pinbtzs2AQHEKAjS1//tPX/lKrCyvxDveer+jqKfWVIR1Y13GWVhdj6GhAU3faUWTdjnKcxjk4P4D8eTTT8tJE5rq6/GhH/6wxu7Et7W/f899D8SVmaux1qO6VtH58sVzcc/hw/5Elcd2733ooVhcWnIlcOjAIf+2Z3r6ug1D2sqFRjeSnfO6ZKGudQipo+W0l6FEUe9vS6u/RC842FD9zdN+FkiIp/kMQHItZQBGzp+N6FJj3tibUMYoH+RXmBZoVEU457n5udi7a8IC+JGc3n77q1+JersRD7z5ftO/MnND28MxTzHu1zqrMavacqDZrxw4K0fVYs+eA/Hd739fNevh6G+2Yn5pQ5E8H2dvdePoRH+sdlcVuRHHVBa9cvHVODY5GTO3b+N5ydpVQX8lTt5zTywvLmg7eyseuPdeXS/G1Rs3LCdphXUhAyTXDS8uKG5d1avLNCBRqKCpNAaeMWxWbytnAsQMB47BXN/yGSLIfDUmCTHOSDKlD6I95NYqNcB+eWWV/OHrmzLM7omdUe9EfOnrX4/h0cE4euwEZaD44VUWhluxf2IciWJxeVUG3YyFxXmZoSZn7Iqnnz8TRzWNRwfaiq47cUAR/9z5s3Hq5M54TYZdV5Qf3380zp57Pg4Jbvb2HPV69PYNSJZl6d4Tt1QFvOut74gpna8rKt/2l96ivhva3s5lgNhYaZQ0pHSh36t12sMG0zURmo0x3qsxpjlTMw2UaNT4tNwyMob1sw/U8qiNBE4vC1FaOpnSWDVhQPfN6Wvx+JNPxuTRg7Fn74Foi0OPknq7xfQRsDw5rSgZGBiRQI2YXZhzrbhzaCxen7oY+/bs1VTDMfNx7OBkPPmDp+PNJ++NazNz8ZYHxlXLDscPnns23nTvPXFHEVnXrmd+ccn5eXhY9al2YEzl81r5T73jbTF15arq06vx8H0Pxv/6/tMyJJFUJM/ciIIOFNGwVrxx1uEguktff09fs85FO/kgkRyaes9VjsSKofKJM8bFU/ktNgzVJ4OUz0YwrutNXXi6i8myImZFW8Rp7csfvP++aLSpA7W2DA7IYIsq7Eeis7Jk2H07J7SX740rMnxvX6+2i0Mxr3y5b9++2OisxcLyYuwb3xvfPfNcPHT/m1SX8hGvVv3uWKxszMWB/W+K66ope1SOIU+7UfM3ORTeWnC0Gmu7Siq7Mn0zfujdp+KV1y7Ef/zK12JtSZGrF7oyO4EhNnLDQuCgby5AaFXe+1ot7d7YrKTdsI2M2czSaKtoyumJQORLA4kgxiJGuaex4q2ud5xLaUxXojfTAn0Zzfm9zlrs3r3bSZ3k3lnfjF1a6edUS7ZEDkU2FeWvK1p2jQ6rYJdRtSXcJQMvLS8oV3dcW/7p88/G0SMHo6Zw3oiOVvLD8QffeyIa/UPRWZ2P3UPtuKMSimeebUULitzQVpSPJwb7+2N5bTU2kKfdH7uiEd96/HHpiT6pE0pSY1MaYQPrLN0Zz+8W5XTGDi6fgHH8Ai3jN1v82oIbPsUr+1TuqTPZJTCcxO09nbFn7ldzSlBO+Mk6pM1cV3IzEBTmOIan+fe/+T5XCozwqGF5rRNXr16N/sGh6NfU3KeFhqjEMXv37Nequ+w6dZ8ccfaVV+INxyZjWNN/Vbz37zsUf3rmmTgxuT/GVdAjww3t0a9evxWDYwNxcO9+Rf2aYeeVk/v7+uXEpbizsBKLKt5/7fNfdDorBkIPgodPHPx7SglPzbtePZ+lGUY3aEj5tzWG1dWU9pQzbV2I5ZMfAOgjhEu0wTDrz6SMefEWRiL63CdYHELiBo4IJWVQy1H0Tikv7pnQ6q7X7ZuzcfblVxR5y47yVm+vP/Pmq4hjw0Px+vQV1amjMdo7FM+/di5OHjka62vLsSJeu8Ym4tmXXoyJvTtjQgX9imZIX2Mzdo/vVhm1FtdFe01wO0dGVQKvavY04o5mQaikqask+dePfl66yJTSNR9g556dtYa+jL2MPA1adnSlB4PycKfLrzMqKL+0A6o+N+fWeJWnuC7RpmuiTf3OjRUTzJ/byrzPFRFcmNOPJ9m/UzbJERKWhw89VAZ6kcv4nmTh21LEHTl4OAaHhlRrLseJI0dibGDYtCbGd6kcmovRkRHl1t1+djk5eVRTkskVcsiq9uGjSg9NLWJDcXNmJl569YIWuz1xcPdO5WdtCLSq37h+Mx599HOxsLZixyM5M8z66o7nD1y5ypDRG8q7a0opaE1goSsHgYa+3BFgrlV1rnJm7jkxJFPZ1N3gkntWCDBOI296SmzlF8TCO8CkeTEkV3wCyHhZvExj0+IJX3Erp7GI0X/7jsoUncd3jEVnrcunEDEog16Q8Zjuw/3aSiqvHlWhf1UFeI+Y8WjvxRdelKFHY6h3UA5ajnGVTqsqzK9NXVVVoG2qdmNrWt0/829+LVa0MYCX7YZ+ajyj9SeV3FdGYgQ92O38xQfh6C/5dcOZx4j5EIg9u6Y5CjHobVRFhuZkKwPAJAUQgqYuLSGyuURSBwsVOZbazLlUY3zjDFinEo27QMYZitT8aCBTCzkWDy9pp7KgY2x4RN5vxo1b05rWoyrW2zEzOxMHtLpfvzmjaS1cKTChrSNPvV5Syti5Y8Qr96Iifo/ybFc5+dWLF7Vir8ZvfP4LcVtpBJmyyWi6QSckTeezFvCV79Qdm6A/xiwm9rqBwLpnvNiLeFXR3nZplFOScxpQb95GQcSbfL384EPGggQWYIrxBAVyNhDMubYhM9dsbECPA8FzWtqwlVDIkxELLKN5z8OIPlXSA4q4TmcjLt2Y9pduF1VSXZmejoYWtla712XLDu2gcMC5l8/7syC+GNGrvLZz1864dvlSfPbRX4/ZuYUt+kQSBkMeIgujsOjp0i1NhGIYUuPCwwIESzFk6gQU9kiMeqMqjSCWPzLKCOPe0ahXRmd6DgIom2TSSHjOX0GhRx2OYGCqAzopqHC5EIwFsGAYj29/lC/tq5zqdGKgtx0N1XKgEc1DAwMa1zZKDr330JH4L4/9ThzeMx613n5XxTt27NBQM545+1wcGB+PrnRgj/mLv/o575DgVb5klbLLkMhWBUfZgDhwdMEMdBpzoKWufi4huuicVJIeUQmEdK6ddrSIMETUq6YLYYCEEe8OZw7g6SPzEZE07nFCejqhgK6GRUsXCKoXwjkXiad/7SZKRAmRwNMcImFxeckrPSUIBO0UrdCkojktJo+881R88Rtf9dayT5UAKWR0uD9eOnchLk5djtH+wfi3//7RuE1utTxWyfzTfNu1IjISADTyeElR/gRBDXjuwffhTnRJ2KSOA7QDks0dSRgAC5dQzrCGoKY7eVBc7SUTymmtyPaXtRyReBni6t/kKy4yBGLVlAv4witYRIBOLva9e8L7gncu0gD3fc2myy0iFBiehzbF+z0PvF116RVXEYva3bzv4bfHf/vmf4+TqklDOCh34tixeP75c/ElRe6ydk3IlFphBZQnGlPetmciMjPd8xlrgc2pDQq654wSaG48ZOScrRkyxhCMdGtoAcpcZmiAWMFhyi392Ec3GWVEbE55jMUUtKBqRGmC5DmNDh5TSALIOfS1NH0xElbNKMjUgFDwgB6lGZGxpm1gR1tSptclFeXveuvb4oLyoLwRi0sr8Z5T71TZsx43ZlWYK0Ln5mbjf/zhHykatdBJ/hIY5sUMsLm41bv+0BHeQHCPUZDDqc5dBIZHDWeipmBgw2ezMWv+EgIWt7LyiA2qaxo5RBMBPMgmQZqJJBPY0xAA4oaRsHjTolXCgO8VXLUbD2ade3WkyZNKb7PlBQIlswTJH3vOLq9Fu1mPS9q7/5W3PRRTly86Ly7LoCf374kvfPnLsUvR+dvf/F1XFOCnnlWu51AHnODFk7AUCzmJWHRFh/xaJfKBJAmjZZlS3opoOkZ68vQrKQq3ociEiUNXFK14OauBiwipGBKmwdTlyEwoNQTVONtFn2EgWPAyNyFwUQBw2BfsNCSw+eMq+JikFsWmFwF/K07TvqfRiktXL8eptz2svDqvY8VFeV26f+f7z7BUW0kvdPhUb3aqiGWUQrORxmIUvZFLdz4je6WrZcb5LHy6zuIcCjKfyJO//c+jLL2gM84gVj4GFWhiqGEQACWXASul9aIxZZHCAjv8daXpy49bEZUpAc389pgEqJSBWyWT76AmH4gHJUvmKAF7GLZsBzHEqlflrhaVhfiDJ74Tx7SXf/XlV+P8ubNx5sUXNIb8wiWCkBKiUGeWuA+6FNlWRm3b4eiQPbqCjjVFJpwjKrol4KxzJZ+dIx3dpyZHt/h5KJcm5+jxHAG+AlKfN/0yVPEexoemLswcg4FGriUSoUO//VvhlAcpGTniqj6mFbUiZQsCQ5IVnM+O8Lw5aXHwRyOKEPhPHj8Wl2cX4+jOgZi6ei3mlQLq4k1zrWwqaRhHmGRCfvrZx3tzooPozIUXWHJp9XM+4bhMEwzTWMFuXZHGs8z9PAGzFfSq8Pv6BjZ5KABTLwY+UimI0mfD+B4sohAvw0DE1YlBwM9pxAEBnWWgVCbZETHFwygGXZgRkdkqOB8MMd3SoYhN2cIzTKKXJ3/r2hDA01iw8znh+VcUriDuIm1Zys1faABt9yEWAUXKQj/GPLnUMmpp6qBP4yU91sr/xZCcOpMbdRYCXuUBKdOUh8H41UT1gnzuivIa5lZKF7zsAMMnIwTwmGBc+DJm+BSWsVw9U/P80WlGOZ9Hw4ceIhiHEBFrClRmK47IhSxl0J9bx4scMy3HoI4cOL40HjESpdAGjf+7QTMN6NmQ3OdTL/DTecQoAwLiTzd2lLZknM2MX1NYYHU4GnVuaYVc6/D0CENnuUJj2mQ+SWPkTgHFYYZzqnrOeKIuHrkQAZ8Rmqt2blP5+cvK2qr5IpCfyggHWjTgU5HCwWLaUPAnIh3pHsuZ5ByqVp7qgG/6UGEMeo6qggcfprhoOapoyQ2ZoSGWuk9zwtcQ6qS/+vF+SkUO8YCIW0Ch5LPKREQhYoQRUoO/rMCdzjjCcGLIuH+qzLXwePHHPbBEKAYjz1pRwfIrYPAq0cWrcobw+T0jDVk9R6yYIHEYZ8urae2nUeRsHCVdRIcXD0Lo4x4a9KUTG4kLR8KLWli0XeIJOp/vZlrbghd9U7KDMhiEpB7ZJp/aoKQ8J+H5sRF+JdLIUcDCHiEyJYi5FgQbGzxeOmcUcMc7RmeKCl+S5oOUNJBOsaE36PkbHsLjH1H5t+iogIDCdzoQ/1pNe/ZO/mQaXBSHn1NACqf+IgNnzSZFucfV4JsOzYahPN3Vl6kKMdNx8CMqzV8HX+Epv0SBBosSBuaaAOCcEYzkgmlqNUdEI1Qs8zoF4YLcUYznUQRVP0l6W0ymEPkIbOEAi/F0Xaa0oXWdC1Y6L6uA7X0yLX+2VxyV9KCBA/JLYmkEdm4u59QYA5/al/FsWTMSGB4Xc+/2oAk/dNriSjqQUXVm4wJ96tPU3eCM6CAokBlIBgBkSPr7l1y62yoRBFS+rgwkxHgBTMLOFTa/5XC38WGWe1YY5RQjWsmx5ccGRBDRnl+nSWOV70Yy9YkCGh+g0bKu04VoygxOJchj42uMz2qQheexNOdZlNc1UYeyxlejUC8fitlBwHpccIZlsWW3xe9BJZuOsgDBPYPJaDlmOsKTwY0OTF9v7ybKAggR6iyixKaqoqYQISrIlWlC+mCTwsG21KJM5/JxBUy8G1HLlVsXhSDniho04EdfOoyVlzxeYCWLXkSWjVHhwROH+L9yCTZ3LGmQDJnUy7PMjWgVDNGqO+iRLm2PiiYNw/sLZ9zwZp4ZUPwwy3pLTvqsvN56Wq1e9aXV3aUL8gmresklGFEXoHsaQR2BkwrSVKEvGBTAAbnrEYT7cUCu4I4qHV7RhV9W2lxBcXQ6ELp+CYmXczh75A5fKEiDIGsaAWjRFFpOUKvmJ01rAqgksWltWHha1gwC9KXPmxLgJAgiMJYyoyI2SqcwBp3sSxrwyBWBDh/kMIyRSJiNe9eHFYp/eF9FH+LBeHsxQBSETA2g4wgTrWJIGrsHT3cBGVrdmcg5MJJOXpA0JgAMSeMXFCl60kIZMJwyLGPy5Y2oNozgKR/zl2jVsK5R2wcUxYvZidMwajGQAEURDN4tlBDQGxzGhYGddFgWcg9KFwRYFlIWVZeJnIr3KTpspIqNx3WPQZhqYJGfvJpDUf1EoiU3Bwmj68xH7N0V4cL3h3Z2JPnW2ps+TkDQlA8jpmFRGCOX6EjeDKQ8PuvWOBhKcFxjjEpyy4ZefF07+SRtsKDJ7AHIjhKcKYgW8qEjHJJSvtcoI+gq02/r6bIYcZ8KInRG6bKiI+uwJIHACEgqYMcBLZT04mE6aWj6uCdK4JHfxiUWMRw4+UEWn5uXR3c0R4logOuUo1IJzhkRrNR8rEaZxSJTxrIGdAAI19Na9zaOKJX86ZOVwFi52HGm8X0AngcQQlmlFPmL07lLuzEj4NHT6u13zJmQPQipFIJ8xqqI0CalPzwIHAQhZ2WNYalSOCnNw4rMt0rkzkUMIIho27v0mMLd2MZHFnr42eEq/95bHciFAfPTT11XDoWHo043pKBiMMagxzNQtpY4tDQkxwHInumKtUCOYWGpHIScrgxEyAsWQlkwGbZaXKFScjx0aljfq6yIU7qwcCAODcK5QIidhEY8Vk9Zv5q65KPc36boeFhw9MFMXR0JyDfbBFxNbwRwZrSgVkgMoQEtkDyuy7Xq/6Sn6ml63lGAxQZzgu+cijgopDErBi21ZW3ibRz6q750HQdLBmeVYXxDw4GTxjYzv6VO5FwMTFhliqKlIU2Lv/z/mbqXhdrah/PNMYzrbw+rG2ArSROejYVgGiVqHQmCyZIhw11QNiSKUhvyqWJGN0pDL6MWp6TQKE+UFSHLmQaQjCv6nrbKsRjL09fnIn5xFEbjGho4SjCFLkIJuEQT8mHMvDeAhnGXbrgvY8nB+Lo1HpAEBGPYx0EBkIkKnBoSY/Ty4ZT62M8yjpC5gyHKtvfG/vKCQgQwP/8zrHKY4C0s2FVUoDxKlcIcGo4MRDBe0s/o2HYkzbskVxFyCoLrZaXFG140F/3q72vl7gmHup8DA+hFqkIvnXRmhEhOXRwkaslRMmkYySyDeGT5xExgiOeZBBO0c5YwU/1wOL2BgjCpmBspIwtF4E2fuUgsDMRtmSZWCsJgCbArvzVrKTywTDUbQcIjJFMzcxG+hYaJWwaELD+fSX7J02UJxsagNj7wGIMpijyib9/wAIUdVGImZVq5Kr04NhecVLjSyfeiTU2t/uJUmrkIwHwlA07Yjky98QUlbvBt/hHeig4UkiHxKAzwjJXyuxjACIIyTOajFAbj1VRmZLEO3cRxbrW0gtW1ULnR4U5ubADydNlzV9ZJ+jY8jjOiGv30QA+SevMQeZQTxk38Enmcsw/JpIVguAYXsg4HrnXG4Z5hwEBbGEme6+SFnUxCTXoLSc7Jf+ThLh2EcO5TMVuayOi6qu5EkChLUyE8pcXWqKcdGBlFuhLs1m8NLVia2bZQI+KQxZFJXtSF6blUEa1kuoVj04gm6YVyJcfs4oqWIgcYdZinWgaF9JPVgMO5OA4gqgRKP5qfMRgb3YWvfr5xR0unCN8zMXkB11b9nf9aXJSZKn4io0EmIvFojmoOaV8JVH3eXYhYCpRg3iMrrCCGd/2xATBmhmGgQ4SkLfOenAVv8jN4peVVoZ8RU8ThXXeC97i3t4LZSgmpPM5Fji14a4ApNcZzS9KQFjVHqkb81XJfIRdRmtPXzwbu6kvtsrHoss7glLul///t/7lF/B+x2NXW2exEwgAAAABJRU5ErkJggg==;" vertex="1" parent="1">
          <mxGeometry x="147" y="466.98" width="88.4" height="88.4" as="geometry" />
        </mxCell>
        <mxCell id="V7aKo0qsAvX8QTe993iU-2" value="$$\varepsilon$$" style="text;whiteSpace=wrap;strokeWidth=5;fontFamily=Times New Roman;fontSize=24;align=center;fontStyle=3;" vertex="1" parent="1">
          <mxGeometry x="276.00023939064204" y="458.87817403708993" width="48.9532100108814" height="105.4493580599144" as="geometry" />
        </mxCell>
        <mxCell id="V7aKo0qsAvX8QTe993iU-3" value="$$\mathbf{x}_{0}$$" style="text;whiteSpace=wrap;align=center;fontSize=15;" vertex="1" parent="1">
          <mxGeometry x="83" y="410.455820256776" width="138.34602829162134" height="70.29957203994293" as="geometry" />
        </mxCell>
        <mxCell id="V7aKo0qsAvX8QTe993iU-28" value="" style="group" vertex="1" connectable="0" parent="1">
          <mxGeometry x="367" y="457.46" width="132" height="122.57999999999998" as="geometry" />
        </mxCell>
        <mxCell id="V7aKo0qsAvX8QTe993iU-12" value="" style="group" vertex="1" connectable="0" parent="V7aKo0qsAvX8QTe993iU-28">
          <mxGeometry width="100" height="100" as="geometry" />
        </mxCell>
        <mxCell id="V7aKo0qsAvX8QTe993iU-8" value="" style="shape=internalStorage;whiteSpace=wrap;html=1;backgroundOutline=1;dx=26;dy=25;fillColor=#dae8fc;strokeColor=#6c8ebf;" vertex="1" parent="V7aKo0qsAvX8QTe993iU-12">
          <mxGeometry width="50" height="50" as="geometry" />
        </mxCell>
        <mxCell id="V7aKo0qsAvX8QTe993iU-9" value="" style="shape=internalStorage;whiteSpace=wrap;html=1;backgroundOutline=1;dx=26;dy=25;fillColor=#dae8fc;strokeColor=#6c8ebf;" vertex="1" parent="V7aKo0qsAvX8QTe993iU-12">
          <mxGeometry x="50" width="50" height="50" as="geometry" />
        </mxCell>
        <mxCell id="V7aKo0qsAvX8QTe993iU-10" value="" style="shape=internalStorage;whiteSpace=wrap;html=1;backgroundOutline=1;dx=26;dy=25;fillColor=#dae8fc;strokeColor=#6c8ebf;" vertex="1" parent="V7aKo0qsAvX8QTe993iU-12">
          <mxGeometry y="50" width="50" height="50" as="geometry" />
        </mxCell>
        <mxCell id="V7aKo0qsAvX8QTe993iU-11" value="" style="shape=internalStorage;whiteSpace=wrap;html=1;backgroundOutline=1;dx=26;dy=25;fillColor=#dae8fc;strokeColor=#6c8ebf;" vertex="1" parent="V7aKo0qsAvX8QTe993iU-12">
          <mxGeometry x="50" y="50" width="50" height="50" as="geometry" />
        </mxCell>
        <mxCell id="V7aKo0qsAvX8QTe993iU-14" value="" style="group" vertex="1" connectable="0" parent="V7aKo0qsAvX8QTe993iU-28">
          <mxGeometry x="15" y="10.579999999999984" width="117" height="112" as="geometry" />
        </mxCell>
        <mxCell id="V7aKo0qsAvX8QTe993iU-15" value="" style="shape=internalStorage;whiteSpace=wrap;html=1;backgroundOutline=1;dx=26;dy=25;fillColor=#dae8fc;strokeColor=#6c8ebf;" vertex="1" parent="V7aKo0qsAvX8QTe993iU-14">
          <mxGeometry width="50" height="50" as="geometry" />
        </mxCell>
        <mxCell id="V7aKo0qsAvX8QTe993iU-16" value="" style="shape=internalStorage;whiteSpace=wrap;html=1;backgroundOutline=1;dx=26;dy=25;fillColor=#dae8fc;strokeColor=#6c8ebf;" vertex="1" parent="V7aKo0qsAvX8QTe993iU-14">
          <mxGeometry x="50" width="50" height="50" as="geometry" />
        </mxCell>
        <mxCell id="V7aKo0qsAvX8QTe993iU-17" value="" style="shape=internalStorage;whiteSpace=wrap;html=1;backgroundOutline=1;dx=26;dy=25;fillColor=#dae8fc;strokeColor=#6c8ebf;" vertex="1" parent="V7aKo0qsAvX8QTe993iU-14">
          <mxGeometry y="50" width="50" height="50" as="geometry" />
        </mxCell>
        <mxCell id="V7aKo0qsAvX8QTe993iU-18" value="" style="shape=internalStorage;whiteSpace=wrap;html=1;backgroundOutline=1;dx=26;dy=25;fillColor=#dae8fc;strokeColor=#6c8ebf;" vertex="1" parent="V7aKo0qsAvX8QTe993iU-14">
          <mxGeometry x="50" y="50" width="50" height="50" as="geometry" />
        </mxCell>
        <mxCell id="V7aKo0qsAvX8QTe993iU-19" value="" style="group" vertex="1" connectable="0" parent="V7aKo0qsAvX8QTe993iU-14">
          <mxGeometry x="17" y="12" width="100" height="100" as="geometry" />
        </mxCell>
        <mxCell id="V7aKo0qsAvX8QTe993iU-20" value="" style="shape=internalStorage;whiteSpace=wrap;html=1;backgroundOutline=1;dx=26;dy=25;fillColor=#dae8fc;strokeColor=#6c8ebf;" vertex="1" parent="V7aKo0qsAvX8QTe993iU-19">
          <mxGeometry width="50" height="50" as="geometry" />
        </mxCell>
        <mxCell id="V7aKo0qsAvX8QTe993iU-21" value="" style="shape=internalStorage;whiteSpace=wrap;html=1;backgroundOutline=1;dx=26;dy=25;fillColor=#dae8fc;strokeColor=#6c8ebf;" vertex="1" parent="V7aKo0qsAvX8QTe993iU-19">
          <mxGeometry x="50" width="50" height="50" as="geometry" />
        </mxCell>
        <mxCell id="V7aKo0qsAvX8QTe993iU-22" value="" style="shape=internalStorage;whiteSpace=wrap;html=1;backgroundOutline=1;dx=26;dy=25;fillColor=#dae8fc;strokeColor=#6c8ebf;" vertex="1" parent="V7aKo0qsAvX8QTe993iU-19">
          <mxGeometry y="50" width="50" height="50" as="geometry" />
        </mxCell>
        <mxCell id="V7aKo0qsAvX8QTe993iU-23" value="" style="shape=internalStorage;whiteSpace=wrap;html=1;backgroundOutline=1;dx=26;dy=25;fillColor=#dae8fc;strokeColor=#6c8ebf;" vertex="1" parent="V7aKo0qsAvX8QTe993iU-19">
          <mxGeometry x="50" y="50" width="50" height="50" as="geometry" />
        </mxCell>
        <mxCell id="V7aKo0qsAvX8QTe993iU-32" value="" style="endArrow=classic;html=1;rounded=0;exitX=1;exitY=0.5;exitDx=0;exitDy=0;" edge="1" parent="1" source="V7aKo0qsAvX8QTe993iU-2">
          <mxGeometry width="50" height="50" relative="1" as="geometry">
            <mxPoint x="293" y="713.46" as="sourcePoint" />
            <mxPoint x="365" y="511.46" as="targetPoint" />
          </mxGeometry>
        </mxCell>
        <mxCell id="V7aKo0qsAvX8QTe993iU-33" value="$$\mathbf{z}_{0}$$" style="text;whiteSpace=wrap;fontSize=15;align=center;" vertex="1" parent="1">
          <mxGeometry x="348" y="400.99999999999994" width="138.35" height="56.76" as="geometry" />
        </mxCell>
        <mxCell id="V7aKo0qsAvX8QTe993iU-35" value="&lt;font face=&quot;Times New Roman&quot;&gt;MLP&lt;/font&gt;" style="rounded=0;whiteSpace=wrap;html=1;fillColor=#f8cecc;strokeColor=none;" vertex="1" parent="1">
          <mxGeometry x="541" y="490.68" width="95" height="41" as="geometry" />
        </mxCell>
        <mxCell id="V7aKo0qsAvX8QTe993iU-39" value="" style="endArrow=classic;html=1;rounded=0;entryX=0;entryY=0.5;entryDx=0;entryDy=0;" edge="1" parent="1" target="V7aKo0qsAvX8QTe993iU-35">
          <mxGeometry width="50" height="50" relative="1" as="geometry">
            <mxPoint x="507" y="511.46" as="sourcePoint" />
            <mxPoint x="583" y="630.46" as="targetPoint" />
          </mxGeometry>
        </mxCell>
        <mxCell id="V7aKo0qsAvX8QTe993iU-57" value="" style="group" vertex="1" connectable="0" parent="1">
          <mxGeometry x="677" y="460.46" width="132" height="122.57999999999993" as="geometry" />
        </mxCell>
        <mxCell id="V7aKo0qsAvX8QTe993iU-43" value="" style="shape=internalStorage;whiteSpace=wrap;html=1;backgroundOutline=1;dx=26;dy=25;fillColor=#fff2cc;strokeColor=#d6b656;container=0;" vertex="1" parent="V7aKo0qsAvX8QTe993iU-57">
          <mxGeometry width="50" height="50" as="geometry" />
        </mxCell>
        <mxCell id="V7aKo0qsAvX8QTe993iU-44" value="" style="shape=internalStorage;whiteSpace=wrap;html=1;backgroundOutline=1;dx=26;dy=25;fillColor=#fff2cc;strokeColor=#d6b656;container=0;" vertex="1" parent="V7aKo0qsAvX8QTe993iU-57">
          <mxGeometry x="50" width="50" height="50" as="geometry" />
        </mxCell>
        <mxCell id="V7aKo0qsAvX8QTe993iU-45" value="" style="shape=internalStorage;whiteSpace=wrap;html=1;backgroundOutline=1;dx=26;dy=25;fillColor=#fff2cc;strokeColor=#d6b656;container=0;" vertex="1" parent="V7aKo0qsAvX8QTe993iU-57">
          <mxGeometry y="50" width="50" height="50" as="geometry" />
        </mxCell>
        <mxCell id="V7aKo0qsAvX8QTe993iU-46" value="" style="shape=internalStorage;whiteSpace=wrap;html=1;backgroundOutline=1;dx=26;dy=25;fillColor=#fff2cc;strokeColor=#d6b656;container=0;" vertex="1" parent="V7aKo0qsAvX8QTe993iU-57">
          <mxGeometry x="50" y="50" width="50" height="50" as="geometry" />
        </mxCell>
        <mxCell id="V7aKo0qsAvX8QTe993iU-48" value="" style="shape=internalStorage;whiteSpace=wrap;html=1;backgroundOutline=1;dx=26;dy=25;fillColor=#fff2cc;strokeColor=#d6b656;container=0;" vertex="1" parent="V7aKo0qsAvX8QTe993iU-57">
          <mxGeometry x="15" y="10.579999999999984" width="50" height="50" as="geometry" />
        </mxCell>
        <mxCell id="V7aKo0qsAvX8QTe993iU-49" value="" style="shape=internalStorage;whiteSpace=wrap;html=1;backgroundOutline=1;dx=26;dy=25;fillColor=#fff2cc;strokeColor=#d6b656;container=0;" vertex="1" parent="V7aKo0qsAvX8QTe993iU-57">
          <mxGeometry x="65" y="10.579999999999984" width="50" height="50" as="geometry" />
        </mxCell>
        <mxCell id="V7aKo0qsAvX8QTe993iU-50" value="" style="shape=internalStorage;whiteSpace=wrap;html=1;backgroundOutline=1;dx=26;dy=25;fillColor=#fff2cc;strokeColor=#d6b656;container=0;" vertex="1" parent="V7aKo0qsAvX8QTe993iU-57">
          <mxGeometry x="15" y="60.57999999999993" width="50" height="50" as="geometry" />
        </mxCell>
        <mxCell id="V7aKo0qsAvX8QTe993iU-51" value="" style="shape=internalStorage;whiteSpace=wrap;html=1;backgroundOutline=1;dx=26;dy=25;fillColor=#fff2cc;strokeColor=#d6b656;container=0;" vertex="1" parent="V7aKo0qsAvX8QTe993iU-57">
          <mxGeometry x="65" y="60.57999999999993" width="50" height="50" as="geometry" />
        </mxCell>
        <mxCell id="V7aKo0qsAvX8QTe993iU-53" value="" style="shape=internalStorage;whiteSpace=wrap;html=1;backgroundOutline=1;dx=26;dy=25;fillColor=#fff2cc;strokeColor=#d6b656;container=0;" vertex="1" parent="V7aKo0qsAvX8QTe993iU-57">
          <mxGeometry x="32" y="22.579999999999984" width="50" height="50" as="geometry" />
        </mxCell>
        <mxCell id="V7aKo0qsAvX8QTe993iU-54" value="" style="shape=internalStorage;whiteSpace=wrap;html=1;backgroundOutline=1;dx=26;dy=25;fillColor=#fff2cc;strokeColor=#d6b656;container=0;" vertex="1" parent="V7aKo0qsAvX8QTe993iU-57">
          <mxGeometry x="82" y="22.579999999999984" width="50" height="50" as="geometry" />
        </mxCell>
        <mxCell id="V7aKo0qsAvX8QTe993iU-55" value="" style="shape=internalStorage;whiteSpace=wrap;html=1;backgroundOutline=1;dx=26;dy=25;fillColor=#fff2cc;strokeColor=#d6b656;container=0;" vertex="1" parent="V7aKo0qsAvX8QTe993iU-57">
          <mxGeometry x="32" y="72.57999999999993" width="50" height="50" as="geometry" />
        </mxCell>
        <mxCell id="V7aKo0qsAvX8QTe993iU-56" value="" style="shape=internalStorage;whiteSpace=wrap;html=1;backgroundOutline=1;dx=26;dy=25;fillColor=#fff2cc;strokeColor=#d6b656;container=0;" vertex="1" parent="V7aKo0qsAvX8QTe993iU-57">
          <mxGeometry x="82" y="72.57999999999993" width="50" height="50" as="geometry" />
        </mxCell>
        <mxCell id="V7aKo0qsAvX8QTe993iU-59" value="" style="endArrow=classic;html=1;rounded=0;exitX=1;exitY=0.5;exitDx=0;exitDy=0;entryX=0;entryY=0;entryDx=0;entryDy=0;" edge="1" parent="1" source="V7aKo0qsAvX8QTe993iU-35" target="V7aKo0qsAvX8QTe993iU-45">
          <mxGeometry width="50" height="50" relative="1" as="geometry">
            <mxPoint x="612" y="681.46" as="sourcePoint" />
            <mxPoint x="662" y="631.46" as="targetPoint" />
          </mxGeometry>
        </mxCell>
        <mxCell id="V7aKo0qsAvX8QTe993iU-60" value="$$\hat{\mathbf{y}}_0$$" style="text;whiteSpace=wrap;fontSize=15;align=center;" vertex="1" parent="1">
          <mxGeometry x="655" y="401" width="150" height="59" as="geometry" />
        </mxCell>
        <mxCell id="V7aKo0qsAvX8QTe993iU-85" value="" style="edgeStyle=orthogonalEdgeStyle;rounded=0;orthogonalLoop=1;jettySize=auto;html=1;" edge="1" parent="1" source="V7aKo0qsAvX8QTe993iU-61" target="V7aKo0qsAvX8QTe993iU-62">
          <mxGeometry relative="1" as="geometry" />
        </mxCell>
        <mxCell id="V7aKo0qsAvX8QTe993iU-61" value="" style="shape=image;verticalLabelPosition=bottom;labelBackgroundColor=default;verticalAlign=top;aspect=fixed;imageAspect=0;image=data:image/png,iVBORw0KGgoAAAANSUhEUgAAAFIAAABTCAYAAAAMcFA+AAAAAXNSR0IArs4c6QAAAARnQU1BAACxjwv8YQUAAAAJcEhZcwAADsMAAA7DAcdvqGQAAA47SURBVHhe7dxniCXFHgXwcs0555wTijlHxICCqJgVsygGDIifVQQRP4ofREEEFVnEjFlBxZwT5pxzzunN7++c5bo8eG/u9MydhXug6e6q6r5Vp84/VPXszvb3CNoQ48JsI5g2ej3EODEksiMMiewIQyI7wpDIjjAksiMMiewIQyI7wpDIjjAksiNM+SXimmuu2RZeeOE2bdq0Nu+881qOtaWWWqpNnz59tMXgYYk4pYncZZdd2hZbbNEWXHDBuv/xxx/bW2+91X744Ye22GKLtSuvvLLKB40pR+TWW2/ddGf22WdvSy+9dFt//fXboosuWkqEP//8s3333Xft1VdfbV9//XW1ueyyy6pukJgSRB577LF1/uuvv9q3335bpjvHHHO0ZZZZpi200EKlxrnmmqvagO7+8ssv7bXXXmuff/55W3755dull146WjsYDJzIAw88sM4UN8888xSBc889d1tggQXar7/+WqQut9xy1YaP/OOPP4pwXf7pp5/ak08+WaQuvvji7Zprrql2g8DAiDzuuOPanHPOWYQsssgiVUZ1b7/9dikQgV988UWbf/7523zzzTdDmcoBqV9++WVd85cffvhhu/HGG+t+EJh0Io8//viKwN98802R5LjtttuqjiIpU0Redtll28orr1zllIdAxDvr7vfff191VIvISy65pO4HhUkl8sQTTyySDF4AoaDtt9++6hDIpJn277//XopDHDPOGQSbr776qq61P++88+p60Jg0Is8+++waOBLWW2+9duutt7YNN9ywfKEDgYCokS6V6pxzj8jffvutffTRR9WOuV944YV1ve+++9b5hhtuqPMggMcJJ/Koo44qM6W0VVddtd11111t0003rTp+kUn3kuYsqABluv/000/rnhlLjS6++OK21VZbVXv3SF5rrbXaVVddVe0mG3icUCLjExN5n3/++RnXypGICIToRkzYNQIdgg4g3T0kYnMTwPzVrbHGGu3qq6+usskEHidsrX3OOefUWVItcb755pvLrEVp90ya4kJa0hrnXHMF2gQIQygfu9pqq1VZnqdiq56jjz66yicbE6LI888/vwb97rvvts0337x8ojMFIoZPzM9SY4hzRJ0///xz1SdqO8DzeeaVV15p7733Xikz5Uil+ptuuqnaTwZGfrd70z799NNrIHyi1cm1117b9tprr8oDEWiwlnmIgJDnCIGSbMQIUDF/9+oR693aa2c19PjjjxeBypwp9s4776z3TwZGfrdbIk844YS2yiqrlEKQefvtt1dgWXHFFYsMBzBDuaCzwacLSAJEwZJLLlkuIH4U+QKLdTbC3Tv40ccee6yWix9//HF75JFH6vnJAh4785FIpLrPPvuslmx33HFHW3vttSu5nhmUqS0gEUkOOzrZoFhppZXKPSgPolKBKhOjjAoHjc6IlGwjKErcZpttKiXpHXAQMxR4PIMwuWHaPPfcc5UzItWzM0NbpJsECoWoXD8GgU6IPO2009onn3xSA7/vvvvabrvtNkNxSApBzDDqQ5A6z8SUEfzQQw/VNYRE7akQ6aK25ywvA9GauVuTDwqdEGlgfBmIzoHyXiCEiqLSXrUhUwQG5C6xxBL/UjGiQFlvuXW7/UkJunKKlL9ONsZF5CmnnNJOPvnk2hc0GBEUMthE5oDiHAcffPBoyT8micCXX365vfPOO+UDbfCKvJDJ8D5tk4SL2Pfcc0+7++672+67715qpFiE89OTjU4Uyddlt8bADdZAfRpAHBWGVIMFe5GCkgj7/vvvV0pElaI+UrTnCx2US6FUT9Xeff3119f22f777z/DjThnW+6ggw5qhxxySF1PBsZNpH3BKDEbEIhDioOKHIhRDkhwXH755ZXGqEeOSG2ZZ+XDvK2tBZCZlW3FQ71HHHFEEQ0U67f9pslEOOy33351nmj0TSQlyPuYNEi+DSTEGRBlIkpkpcwQ4t7AEUW1INfceOONS5GBwJKknLmaNC7A5sRJJ51UZKedKC4Aae/au/1G2kw0+k7ImY4l4CabbFID5dN0HBDptQboUG9AMWvnF198sUj0HLew5ZZb1rpc8EgURi4w+5deeqlWK2+88UY78sgj6zfiNgBxjlxnB10batePidpqG1F//yubvffeuwbq8d5EmtqowjmBgvkxtRAs10zQ4A74NQP2DCXbkBDAwNbbU0891W655ZZyIQcccECV50MZICowOd6h3sQilCVEoWADpUvgsW/TNnDg4A1I53U01zFj9wgyMINkfsqolDtApLM8UQoj0FjyZbkoGFGoyM4KQgaFmajoQHnq9E09+K1cswTqngj0TSSTNHhKNBjEIVCE1XmHslxr5wjxjsB7MkDPhERJ/r333lspjk8V3u23HInm4HkT4/eRZjK0Qax+mkBlvXlr1+iLSHmb2c3Acma6iKAIRClP5w2GSXvOAJFqf5IbEEiS3ojIzJCPlCdyAVZOWcl4X1wGeE8mxbsR6d67TJq+SLPcey83YuXVNfpWJHMMaUjUeUQ6pxxhzhS2wgor1H2IdPjIH1+J5KRRIBjJL/fZZ5/ygdIgZ+8OTILD73sv4pzBtTqgXtfKtJ0I9EWkGYYoIaRRC/MSeflFqrL50LuRkEHnGWaJ6HxSQOzrr79eAca6vRe2yUJOfk8fKJQSQyIzVi71shWnTr8SFLkRq6tjjjmm2neBvolECHUkDYGUAXIMBFFgkKlHlucQbZvNIMGuke/cTNrSEwQY70eW9kEmEUIgcAEJLvrp9/2Ws3YyAocPaiajK4z5TTvuuOO/oiUYFHIQotMGkjwOqJNZahPSg3ynfvTRR+uTBPJD4nXXXVdp0K677lo+NqlNJse198UP6xfFKkeoAGTiKDDkqtt2221rc+WFF16onPTwww+vuvGgrymJAnTSgVQHUnQ0JJtxAzJYBOdQry6K+OCDD9qzzz5b52xoaONdgcR/5k1i701fEBVCEeiIai071fOV0ih9tgiQB0vwu1DmmBNyMynCbrDBBqUAxOgwvxi12UzgpwxSZ11rG8X0RloBxkYun9i77PMug4+S/Cb4w4Lp06dXFAYKzjOgP551mAikcTP64myyWYs/YJUa+c6uv8ZzxRVXjL5lbBgZy9gT8ieeeKI68+abb9YgzAPTjd/L3ysyQ+mGzQURN/UGx9QQyGyRwqz9YZXBqvfeqCurncAnjM0222z07h+YFITlOuTLQz2vjBpNhoAjBfKN3Xt32mmnUqwvkvrQL/rStA9NOpnozP/pqGOPPfaoQSEtBGelokxbRDnshpsUaQmoc8RcqSoEmRSHvxeyO2RyEBE/CHEZ4COYDZBYCXAzLIKFeAcxIJ0aETyeVc+4viL602SRUQdjFog0GKQZoI5mAPnDAKBC/spWmLqQoC0X4FnnKBMQzleC9/T+KZ9JBJMn5aI+79QPvtfkUJ57EZvFWAhQJzPXF32i+LGCaY/7c6yPXPDwww/XGbk6rcMIMjBkIiU/ZWDUteeee1YizvTAczFL13yf94B3pZ2dotVXX72u/YGpNlExf2fClJkYv6kP3IgyzzlLpRz64n7nnXeuLbqLLrqo3jMW4HHc4QqBIRF0GrL2NRgEMHHmSAWut9tuuyLKQJTHVCmFGj3HHQCSEBITBtH2wQcfbIceeuhoyb/h+QQ4kyMxV+Y578s3c5kAVfLlJqBfjD/uzwRE8nNIMQCd5qcQpY5ftcZGiuipHnna9ibc2vb6N+8LRPinn3569K6Ve1BvUpDSS7hJ5B68H1H5yzblojYyPTPe7zzjNu3/BuZOkUiKcwezjmQpEfKcDVA9lfKPfC5Tg6RNQE3ahiTkZOlpm623XgBTpywwTGSbIIm4tT81+i3K51cvuOCC0dZjA9OeECLBl0CmG1Xdf//9dQbK4PitnRGOAIQLJpTi6F2fq4urAIFFm3QdEX4rJCPf9cxE6gviZAyCC8swIdb2cO6559Z5rMDjhBH5vyBgMCnLPSQwMYNXhiTKRBzSEJPojfS4C+rmHrJTD9q69ixXkQlR5vAcVUp17D4l2lP/eIjs3Ef+v5CLIozPpBIJuoEiycFnKddGhE9CD661RyrzREyeC6GuBRT5bsogLkDe2JuD9ktiMDBFBjvssEMNjuM3OIpxphQ+E0kG7D5ugmnKE3NPhb3pUc6GluGljLJNSLbtTGT+KLZfjLx7cIoMHnjggVJYTBEhuRdhqQeSCYj+CM69g4/0DHU5kNZLoHr3SDRhmYAovAsMXJHBuuuuW18M+bQMmjKpjSoRyo8pT/ARnBJQmLD6EA9RYe+ZmqNGz5511ll1PR6MvHfwigysKvg9618DzRJOmQEzbSQh2UFNSMk9fyiARJmQuhzUmz9ogC5IDKaMIoONNtqo1CZFip8UOChxnXXWqTaWe8kx1WWjN2DKVGsCPGeIyrgF4DLy73S6wJRSZGCDl6pEaqpz5g+pzDoayTZllalXzucpB+UIpD4Ept57mDZ0SWIw5YiEZ555ppJkZt1LFkXl78ORIoeM0pCsPfCpyvNsL84888zRq24x5Uy7F3ZqfKiS6iCNuUvYESahZ958nmSeKSMtwUY7yDoeuvxq2AumPaWJBJuz/hY9G6/IRIw/b+EfwXLP6ig+kS/NJoTzGWecUdcThVmCSOATpUYiswTaHiYymW/qBSbEOlOmtnDYYYfVeSIxyxAZ2Hy1Bhc45JvJI20+jAyl2kjqmTqceuqpdZ5ozHJEUh5/addIDukvfKVH/GD+EYA/tppszHJEBvmcQXkUyj8yeRjEf2EzyxI51YDHKZlHzooYEtkRhkR2hCGRHWFIZEcYEtkRhkR2hCGRHWFIZEcYEtkRhkR2hCGRHWFI5BBTCa39B2Xs3Y4lAAQQAAAAAElFTkSuQmCC;" vertex="1" parent="1">
          <mxGeometry x="1276" y="470.1000000000001" width="82" height="83" as="geometry" />
        </mxCell>
        <mxCell id="V7aKo0qsAvX8QTe993iU-62" value="$$\varepsilon$$" style="text;whiteSpace=wrap;strokeWidth=5;fontFamily=Times New Roman;fontSize=24;align=center;fontStyle=3;" vertex="1" parent="1">
          <mxGeometry x="1177.000239390642" y="458.86817403708994" width="48.9532100108814" height="105.4493580599144" as="geometry" />
        </mxCell>
        <mxCell id="V7aKo0qsAvX8QTe993iU-65" value="" style="group" vertex="1" connectable="0" parent="1">
          <mxGeometry x="1006" y="460" width="132" height="122.57999999999993" as="geometry" />
        </mxCell>
        <mxCell id="V7aKo0qsAvX8QTe993iU-66" value="" style="shape=internalStorage;whiteSpace=wrap;html=1;backgroundOutline=1;dx=26;dy=25;fillColor=#fff2cc;strokeColor=#d6b656;container=0;" vertex="1" parent="V7aKo0qsAvX8QTe993iU-65">
          <mxGeometry width="50" height="50" as="geometry" />
        </mxCell>
        <mxCell id="V7aKo0qsAvX8QTe993iU-67" value="" style="shape=internalStorage;whiteSpace=wrap;html=1;backgroundOutline=1;dx=26;dy=25;fillColor=#fff2cc;strokeColor=#d6b656;container=0;" vertex="1" parent="V7aKo0qsAvX8QTe993iU-65">
          <mxGeometry x="50" width="50" height="50" as="geometry" />
        </mxCell>
        <mxCell id="V7aKo0qsAvX8QTe993iU-68" value="" style="shape=internalStorage;whiteSpace=wrap;html=1;backgroundOutline=1;dx=26;dy=25;fillColor=#fff2cc;strokeColor=#d6b656;container=0;" vertex="1" parent="V7aKo0qsAvX8QTe993iU-65">
          <mxGeometry y="50" width="50" height="50" as="geometry" />
        </mxCell>
        <mxCell id="V7aKo0qsAvX8QTe993iU-69" value="" style="shape=internalStorage;whiteSpace=wrap;html=1;backgroundOutline=1;dx=26;dy=25;fillColor=#fff2cc;strokeColor=#d6b656;container=0;" vertex="1" parent="V7aKo0qsAvX8QTe993iU-65">
          <mxGeometry x="50" y="50" width="50" height="50" as="geometry" />
        </mxCell>
        <mxCell id="V7aKo0qsAvX8QTe993iU-70" value="" style="shape=internalStorage;whiteSpace=wrap;html=1;backgroundOutline=1;dx=26;dy=25;fillColor=#fff2cc;strokeColor=#d6b656;container=0;" vertex="1" parent="V7aKo0qsAvX8QTe993iU-65">
          <mxGeometry x="15" y="10.579999999999984" width="50" height="50" as="geometry" />
        </mxCell>
        <mxCell id="V7aKo0qsAvX8QTe993iU-71" value="" style="shape=internalStorage;whiteSpace=wrap;html=1;backgroundOutline=1;dx=26;dy=25;fillColor=#fff2cc;strokeColor=#d6b656;container=0;" vertex="1" parent="V7aKo0qsAvX8QTe993iU-65">
          <mxGeometry x="65" y="10.579999999999984" width="50" height="50" as="geometry" />
        </mxCell>
        <mxCell id="V7aKo0qsAvX8QTe993iU-72" value="" style="shape=internalStorage;whiteSpace=wrap;html=1;backgroundOutline=1;dx=26;dy=25;fillColor=#fff2cc;strokeColor=#d6b656;container=0;" vertex="1" parent="V7aKo0qsAvX8QTe993iU-65">
          <mxGeometry x="15" y="60.57999999999993" width="50" height="50" as="geometry" />
        </mxCell>
        <mxCell id="V7aKo0qsAvX8QTe993iU-73" value="" style="shape=internalStorage;whiteSpace=wrap;html=1;backgroundOutline=1;dx=26;dy=25;fillColor=#fff2cc;strokeColor=#d6b656;container=0;" vertex="1" parent="V7aKo0qsAvX8QTe993iU-65">
          <mxGeometry x="65" y="60.57999999999993" width="50" height="50" as="geometry" />
        </mxCell>
        <mxCell id="V7aKo0qsAvX8QTe993iU-74" value="" style="shape=internalStorage;whiteSpace=wrap;html=1;backgroundOutline=1;dx=26;dy=25;fillColor=#fff2cc;strokeColor=#d6b656;container=0;" vertex="1" parent="V7aKo0qsAvX8QTe993iU-65">
          <mxGeometry x="32" y="22.579999999999984" width="50" height="50" as="geometry" />
        </mxCell>
        <mxCell id="V7aKo0qsAvX8QTe993iU-75" value="" style="shape=internalStorage;whiteSpace=wrap;html=1;backgroundOutline=1;dx=26;dy=25;fillColor=#fff2cc;strokeColor=#d6b656;container=0;" vertex="1" parent="V7aKo0qsAvX8QTe993iU-65">
          <mxGeometry x="82" y="22.579999999999984" width="50" height="50" as="geometry" />
        </mxCell>
        <mxCell id="V7aKo0qsAvX8QTe993iU-76" value="" style="shape=internalStorage;whiteSpace=wrap;html=1;backgroundOutline=1;dx=26;dy=25;fillColor=#fff2cc;strokeColor=#d6b656;container=0;" vertex="1" parent="V7aKo0qsAvX8QTe993iU-65">
          <mxGeometry x="32" y="72.57999999999993" width="50" height="50" as="geometry" />
        </mxCell>
        <mxCell id="V7aKo0qsAvX8QTe993iU-77" value="" style="shape=internalStorage;whiteSpace=wrap;html=1;backgroundOutline=1;dx=26;dy=25;fillColor=#fff2cc;strokeColor=#d6b656;container=0;" vertex="1" parent="V7aKo0qsAvX8QTe993iU-65">
          <mxGeometry x="82" y="72.57999999999993" width="50" height="50" as="geometry" />
        </mxCell>
        <mxCell id="V7aKo0qsAvX8QTe993iU-79" value="$$\mathbf{y}_{0}$$" style="text;whiteSpace=wrap;align=center;fontSize=15;" vertex="1" parent="1">
          <mxGeometry x="988" y="398.46" width="150" height="59" as="geometry" />
        </mxCell>
        <mxCell id="V7aKo0qsAvX8QTe993iU-80" value="&lt;span style=&quot;color: rgb(51, 51, 51); font-style: normal; font-variant-ligatures: normal; font-variant-caps: normal; letter-spacing: normal; orphans: 2; text-indent: 0px; text-transform: none; widows: 2; word-spacing: 0px; -webkit-text-stroke-width: 0px; white-space: normal; background-color: rgb(236, 236, 236); text-decoration-thickness: initial; text-decoration-style: initial; text-decoration-color: initial; float: none; display: inline !important;&quot;&gt;$$loss_{3D}$$&lt;/span&gt;" style="text;whiteSpace=wrap;html=1;align=center;fontFamily=Times New Roman;fontSize=15;fontStyle=1;strokeColor=default;dashed=1;" vertex="1" parent="1">
          <mxGeometry x="853" y="484.17999999999995" width="110.65" height="54" as="geometry" />
        </mxCell>
        <mxCell id="V7aKo0qsAvX8QTe993iU-81" value="" style="endArrow=classic;html=1;rounded=0;entryX=0;entryY=0.5;entryDx=0;entryDy=0;" edge="1" parent="1" target="V7aKo0qsAvX8QTe993iU-80">
          <mxGeometry width="50" height="50" relative="1" as="geometry">
            <mxPoint x="817" y="512" as="sourcePoint" />
            <mxPoint x="870" y="512.1800000000001" as="targetPoint" />
          </mxGeometry>
        </mxCell>
        <mxCell id="V7aKo0qsAvX8QTe993iU-82" value="" style="endArrow=classic;html=1;rounded=0;entryX=1;entryY=0.5;entryDx=0;entryDy=0;" edge="1" parent="1" target="V7aKo0qsAvX8QTe993iU-80">
          <mxGeometry width="50" height="50" relative="1" as="geometry">
            <mxPoint x="1004" y="511" as="sourcePoint" />
            <mxPoint x="1013" y="618" as="targetPoint" />
          </mxGeometry>
        </mxCell>
        <mxCell id="V7aKo0qsAvX8QTe993iU-84" value="" style="endArrow=classic;html=1;rounded=0;exitX=0;exitY=0.5;exitDx=0;exitDy=0;" edge="1" parent="1" source="V7aKo0qsAvX8QTe993iU-62">
          <mxGeometry width="50" height="50" relative="1" as="geometry">
            <mxPoint x="1206.000239390642" y="512.482853067047" as="sourcePoint" />
            <mxPoint x="1140" y="512" as="targetPoint" />
          </mxGeometry>
        </mxCell>
        <mxCell id="V7aKo0qsAvX8QTe993iU-86" value="$$\mathbf{p}_{0}$$" style="text;whiteSpace=wrap;align=center;fontSize=15;" vertex="1" parent="1">
          <mxGeometry x="1252" y="400.995820256776" width="138.34602829162134" height="70.29957203994293" as="geometry" />
        </mxCell>
        <mxCell id="V7aKo0qsAvX8QTe993iU-87" value="&lt;span style=&quot;font-family: &amp;quot;Times New Roman&amp;quot;;&quot;&gt;Diffusion model&lt;/span&gt;" style="rounded=1;whiteSpace=wrap;html=1;fillColor=#E6E6E6;" vertex="1" parent="1">
          <mxGeometry x="498.35" y="659" width="121" height="49" as="geometry" />
        </mxCell>
        <mxCell id="V7aKo0qsAvX8QTe993iU-128" value="" style="group" vertex="1" connectable="0" parent="1">
          <mxGeometry x="684" y="643" width="132" height="122.57999999999993" as="geometry" />
        </mxCell>
        <mxCell id="V7aKo0qsAvX8QTe993iU-113" value="" style="shape=internalStorage;whiteSpace=wrap;html=1;backgroundOutline=1;dx=26;dy=25;fillColor=#f5f5f5;container=0;strokeColor=#666666;gradientColor=#b3b3b3;" vertex="1" parent="V7aKo0qsAvX8QTe993iU-128">
          <mxGeometry width="50" height="50" as="geometry" />
        </mxCell>
        <mxCell id="V7aKo0qsAvX8QTe993iU-114" value="" style="shape=internalStorage;whiteSpace=wrap;html=1;backgroundOutline=1;dx=26;dy=25;fillColor=#f5f5f5;container=0;strokeColor=#666666;gradientColor=#b3b3b3;" vertex="1" parent="V7aKo0qsAvX8QTe993iU-128">
          <mxGeometry x="50" width="50" height="50" as="geometry" />
        </mxCell>
        <mxCell id="V7aKo0qsAvX8QTe993iU-115" value="" style="shape=internalStorage;whiteSpace=wrap;html=1;backgroundOutline=1;dx=26;dy=25;fillColor=#f5f5f5;container=0;strokeColor=#666666;gradientColor=#b3b3b3;" vertex="1" parent="V7aKo0qsAvX8QTe993iU-128">
          <mxGeometry y="50" width="50" height="50" as="geometry" />
        </mxCell>
        <mxCell id="V7aKo0qsAvX8QTe993iU-116" value="" style="shape=internalStorage;whiteSpace=wrap;html=1;backgroundOutline=1;dx=26;dy=25;fillColor=#f5f5f5;container=0;strokeColor=#666666;gradientColor=#b3b3b3;" vertex="1" parent="V7aKo0qsAvX8QTe993iU-128">
          <mxGeometry x="50" y="50" width="50" height="50" as="geometry" />
        </mxCell>
        <mxCell id="V7aKo0qsAvX8QTe993iU-118" value="" style="shape=internalStorage;whiteSpace=wrap;html=1;backgroundOutline=1;dx=26;dy=25;fillColor=#f5f5f5;container=0;strokeColor=#666666;gradientColor=#b3b3b3;" vertex="1" parent="V7aKo0qsAvX8QTe993iU-128">
          <mxGeometry x="15" y="10.579999999999927" width="50" height="50" as="geometry" />
        </mxCell>
        <mxCell id="V7aKo0qsAvX8QTe993iU-119" value="" style="shape=internalStorage;whiteSpace=wrap;html=1;backgroundOutline=1;dx=26;dy=25;fillColor=#f5f5f5;container=0;strokeColor=#666666;gradientColor=#b3b3b3;" vertex="1" parent="V7aKo0qsAvX8QTe993iU-128">
          <mxGeometry x="65" y="10.579999999999927" width="50" height="50" as="geometry" />
        </mxCell>
        <mxCell id="V7aKo0qsAvX8QTe993iU-120" value="" style="shape=internalStorage;whiteSpace=wrap;html=1;backgroundOutline=1;dx=26;dy=25;fillColor=#f5f5f5;container=0;strokeColor=#666666;gradientColor=#b3b3b3;" vertex="1" parent="V7aKo0qsAvX8QTe993iU-128">
          <mxGeometry x="15" y="60.57999999999993" width="50" height="50" as="geometry" />
        </mxCell>
        <mxCell id="V7aKo0qsAvX8QTe993iU-121" value="" style="shape=internalStorage;whiteSpace=wrap;html=1;backgroundOutline=1;dx=26;dy=25;fillColor=#f5f5f5;container=0;strokeColor=#666666;gradientColor=#b3b3b3;" vertex="1" parent="V7aKo0qsAvX8QTe993iU-128">
          <mxGeometry x="65" y="60.57999999999993" width="50" height="50" as="geometry" />
        </mxCell>
        <mxCell id="V7aKo0qsAvX8QTe993iU-123" value="" style="shape=internalStorage;whiteSpace=wrap;html=1;backgroundOutline=1;dx=26;dy=25;fillColor=#f5f5f5;container=0;strokeColor=#666666;gradientColor=#b3b3b3;" vertex="1" parent="V7aKo0qsAvX8QTe993iU-128">
          <mxGeometry x="32" y="22.579999999999927" width="50" height="50" as="geometry" />
        </mxCell>
        <mxCell id="V7aKo0qsAvX8QTe993iU-124" value="" style="shape=internalStorage;whiteSpace=wrap;html=1;backgroundOutline=1;dx=26;dy=25;fillColor=#f5f5f5;container=0;strokeColor=#666666;gradientColor=#b3b3b3;" vertex="1" parent="V7aKo0qsAvX8QTe993iU-128">
          <mxGeometry x="82" y="22.579999999999927" width="50" height="50" as="geometry" />
        </mxCell>
        <mxCell id="V7aKo0qsAvX8QTe993iU-125" value="" style="shape=internalStorage;whiteSpace=wrap;html=1;backgroundOutline=1;dx=26;dy=25;fillColor=#f5f5f5;container=0;strokeColor=#666666;gradientColor=#b3b3b3;" vertex="1" parent="V7aKo0qsAvX8QTe993iU-128">
          <mxGeometry x="32" y="72.57999999999993" width="50" height="50" as="geometry" />
        </mxCell>
        <mxCell id="V7aKo0qsAvX8QTe993iU-126" value="" style="shape=internalStorage;whiteSpace=wrap;html=1;backgroundOutline=1;dx=26;dy=25;fillColor=#f5f5f5;container=0;strokeColor=#666666;gradientColor=#b3b3b3;" vertex="1" parent="V7aKo0qsAvX8QTe993iU-128">
          <mxGeometry x="82" y="72.57999999999993" width="50" height="50" as="geometry" />
        </mxCell>
        <mxCell id="V7aKo0qsAvX8QTe993iU-136" value="" style="endArrow=classic;html=1;rounded=0;exitX=1;exitY=1;exitDx=0;exitDy=0;entryX=0;entryY=0.5;entryDx=0;entryDy=0;" edge="1" parent="1" source="V7aKo0qsAvX8QTe993iU-22" target="V7aKo0qsAvX8QTe993iU-87">
          <mxGeometry width="50" height="50" relative="1" as="geometry">
            <mxPoint x="329" y="805" as="sourcePoint" />
            <mxPoint x="442" y="724" as="targetPoint" />
            <Array as="points">
              <mxPoint x="446" y="684" />
            </Array>
          </mxGeometry>
        </mxCell>
        <mxCell id="V7aKo0qsAvX8QTe993iU-137" value="" style="rounded=0;whiteSpace=wrap;html=1;fillColor=#dae8fc;strokeColor=#6c8ebf;" vertex="1" parent="1">
          <mxGeometry x="119" y="796" width="569" height="310" as="geometry" />
        </mxCell>
        <mxCell id="V7aKo0qsAvX8QTe993iU-138" value="&lt;span style=&quot;&quot;&gt;Dynamic Step Generator(DSG)&lt;/span&gt;" style="text;html=1;align=center;verticalAlign=middle;whiteSpace=wrap;rounded=0;fontSize=24;fontFamily=Times New Roman;" vertex="1" parent="1">
          <mxGeometry x="122.70000000000005" y="1040" width="173.5" height="68" as="geometry" />
        </mxCell>
        <mxCell id="V7aKo0qsAvX8QTe993iU-139" value="$$\mathrm{T&#39;}$$" style="text;whiteSpace=wrap;align=center;labelBorderColor=none;textShadow=0;labelBackgroundColor=none;fontSize=15;" vertex="1" parent="1">
          <mxGeometry x="585.7" y="997" width="125" height="49" as="geometry" />
        </mxCell>
        <mxCell id="V7aKo0qsAvX8QTe993iU-140" value="" style="group" vertex="1" connectable="0" parent="1">
          <mxGeometry x="134.69999999999993" y="808.0699999999999" width="186" height="75" as="geometry" />
        </mxCell>
        <mxCell id="V7aKo0qsAvX8QTe993iU-141" value="" style="rounded=0;whiteSpace=wrap;html=1;" vertex="1" parent="V7aKo0qsAvX8QTe993iU-140">
          <mxGeometry y="3" width="186" height="67" as="geometry" />
        </mxCell>
        <mxCell id="V7aKo0qsAvX8QTe993iU-142" value="" style="rhombus;whiteSpace=wrap;html=1;fillColor=#B9E0A5;strokeColor=#97D077;" vertex="1" parent="V7aKo0qsAvX8QTe993iU-140">
          <mxGeometry x="12" y="9" width="12" height="12" as="geometry" />
        </mxCell>
        <mxCell id="V7aKo0qsAvX8QTe993iU-143" value="" style="triangle;whiteSpace=wrap;html=1;direction=north;fillColor=#B9E0A5;strokeColor=#97D077;" vertex="1" parent="V7aKo0qsAvX8QTe993iU-140">
          <mxGeometry x="12" y="31" width="12" height="12" as="geometry" />
        </mxCell>
        <mxCell id="V7aKo0qsAvX8QTe993iU-144" value="" style="triangle;whiteSpace=wrap;html=1;direction=north;fillColor=#FF0B0B;strokeColor=#EA6B66;" vertex="1" parent="V7aKo0qsAvX8QTe993iU-140">
          <mxGeometry x="12" y="51" width="12" height="12" as="geometry" />
        </mxCell>
        <mxCell id="V7aKo0qsAvX8QTe993iU-145" value="normal feature(train)" style="text;html=1;align=center;verticalAlign=middle;whiteSpace=wrap;rounded=0;" vertex="1" parent="V7aKo0qsAvX8QTe993iU-140">
          <mxGeometry x="22" width="129" height="30" as="geometry" />
        </mxCell>
        <mxCell id="V7aKo0qsAvX8QTe993iU-146" value="normal feature(test)" style="text;html=1;align=center;verticalAlign=middle;whiteSpace=wrap;rounded=0;" vertex="1" parent="V7aKo0qsAvX8QTe993iU-140">
          <mxGeometry x="21" y="24" width="129" height="30" as="geometry" />
        </mxCell>
        <mxCell id="V7aKo0qsAvX8QTe993iU-147" value="abnormal feature(test)" style="text;html=1;align=center;verticalAlign=middle;whiteSpace=wrap;rounded=0;" vertex="1" parent="V7aKo0qsAvX8QTe993iU-140">
          <mxGeometry x="27.5" y="45" width="129" height="30" as="geometry" />
        </mxCell>
        <mxCell id="V7aKo0qsAvX8QTe993iU-148" value="" style="group" vertex="1" connectable="0" parent="1">
          <mxGeometry x="299.70000000000005" y="821" width="384.15" height="255" as="geometry" />
        </mxCell>
        <mxCell id="V7aKo0qsAvX8QTe993iU-149" value="" style="ellipse;whiteSpace=wrap;html=1;aspect=fixed;fillColor=#ffe6cc;strokeColor=default;dashed=1;" vertex="1" parent="V7aKo0qsAvX8QTe993iU-148">
          <mxGeometry x="180" y="-23" width="129" height="129" as="geometry" />
        </mxCell>
        <mxCell id="V7aKo0qsAvX8QTe993iU-150" value="" style="ellipse;whiteSpace=wrap;html=1;aspect=fixed;fillColor=#ffe6cc;strokeColor=default;dashed=1;" vertex="1" parent="V7aKo0qsAvX8QTe993iU-148">
          <mxGeometry x="66.25" y="45" width="96" height="96" as="geometry" />
        </mxCell>
        <mxCell id="V7aKo0qsAvX8QTe993iU-151" value="" style="triangle;whiteSpace=wrap;html=1;direction=north;fillColor=#B9E0A5;strokeColor=#97D077;" vertex="1" parent="V7aKo0qsAvX8QTe993iU-148">
          <mxGeometry x="167" y="94" width="12" height="12" as="geometry" />
        </mxCell>
        <mxCell id="V7aKo0qsAvX8QTe993iU-152" value="" style="triangle;whiteSpace=wrap;html=1;direction=north;fillColor=#B9E0A5;strokeColor=#97D077;" vertex="1" parent="V7aKo0qsAvX8QTe993iU-148">
          <mxGeometry x="101.5" y="81" width="12" height="12" as="geometry" />
        </mxCell>
        <mxCell id="V7aKo0qsAvX8QTe993iU-153" value="" style="rhombus;whiteSpace=wrap;html=1;fillColor=#B9E0A5;strokeColor=#97D077;" vertex="1" parent="V7aKo0qsAvX8QTe993iU-148">
          <mxGeometry x="149.5" y="91" width="12" height="12" as="geometry" />
        </mxCell>
        <mxCell id="V7aKo0qsAvX8QTe993iU-154" value="" style="rhombus;whiteSpace=wrap;html=1;fillColor=#B9E0A5;strokeColor=#97D077;" vertex="1" parent="V7aKo0qsAvX8QTe993iU-148">
          <mxGeometry x="73" y="66" width="12" height="12" as="geometry" />
        </mxCell>
        <mxCell id="V7aKo0qsAvX8QTe993iU-155" value="" style="rhombus;whiteSpace=wrap;html=1;fillColor=#B9E0A5;strokeColor=#97D077;" vertex="1" parent="V7aKo0qsAvX8QTe993iU-148">
          <mxGeometry x="211" y="42" width="12" height="12" as="geometry" />
        </mxCell>
        <mxCell id="V7aKo0qsAvX8QTe993iU-156" value="" style="rhombus;whiteSpace=wrap;html=1;fillColor=#B9E0A5;strokeColor=#97D077;" vertex="1" parent="V7aKo0qsAvX8QTe993iU-148">
          <mxGeometry x="126.5" y="78" width="12" height="12" as="geometry" />
        </mxCell>
        <mxCell id="V7aKo0qsAvX8QTe993iU-157" value="" style="rhombus;whiteSpace=wrap;html=1;fillColor=#B9E0A5;strokeColor=#97D077;" vertex="1" parent="V7aKo0qsAvX8QTe993iU-148">
          <mxGeometry x="199" y="73" width="12" height="12" as="geometry" />
        </mxCell>
        <mxCell id="V7aKo0qsAvX8QTe993iU-158" value="" style="rhombus;whiteSpace=wrap;html=1;fillColor=#B9E0A5;strokeColor=#97D077;" vertex="1" parent="V7aKo0qsAvX8QTe993iU-148">
          <mxGeometry x="120" y="30" width="12" height="12" as="geometry" />
        </mxCell>
        <mxCell id="V7aKo0qsAvX8QTe993iU-159" value="" style="rhombus;whiteSpace=wrap;html=1;fillColor=#B9E0A5;strokeColor=#97D077;" vertex="1" parent="V7aKo0qsAvX8QTe993iU-148">
          <mxGeometry x="142" y="12" width="12" height="12" as="geometry" />
        </mxCell>
        <mxCell id="V7aKo0qsAvX8QTe993iU-160" value="" style="rhombus;whiteSpace=wrap;html=1;fillColor=#B9E0A5;strokeColor=#97D077;" vertex="1" parent="V7aKo0qsAvX8QTe993iU-148">
          <mxGeometry x="184.99999999999994" y="35.5" width="12" height="12" as="geometry" />
        </mxCell>
        <mxCell id="V7aKo0qsAvX8QTe993iU-161" value="" style="rounded=0;whiteSpace=wrap;html=1;direction=west;gradientColor=#B40A0A;gradientDirection=west;" vertex="1" parent="V7aKo0qsAvX8QTe993iU-148">
          <mxGeometry x="76" y="231" width="199.5" height="18" as="geometry" />
        </mxCell>
        <mxCell id="V7aKo0qsAvX8QTe993iU-162" value="" style="group" vertex="1" connectable="0" parent="V7aKo0qsAvX8QTe993iU-148">
          <mxGeometry x="75.5" y="193" width="200" height="20" as="geometry" />
        </mxCell>
        <mxCell id="V7aKo0qsAvX8QTe993iU-163" value="1" style="rounded=0;whiteSpace=wrap;html=1;" vertex="1" parent="V7aKo0qsAvX8QTe993iU-162">
          <mxGeometry width="20" height="20" as="geometry" />
        </mxCell>
        <mxCell id="V7aKo0qsAvX8QTe993iU-164" value="2" style="rounded=0;whiteSpace=wrap;html=1;" vertex="1" parent="V7aKo0qsAvX8QTe993iU-162">
          <mxGeometry x="20" width="20" height="20" as="geometry" />
        </mxCell>
        <mxCell id="V7aKo0qsAvX8QTe993iU-165" value="5" style="rounded=0;whiteSpace=wrap;html=1;" vertex="1" parent="V7aKo0qsAvX8QTe993iU-162">
          <mxGeometry x="80" width="20" height="20" as="geometry" />
        </mxCell>
        <mxCell id="V7aKo0qsAvX8QTe993iU-166" value="4" style="rounded=0;whiteSpace=wrap;html=1;" vertex="1" parent="V7aKo0qsAvX8QTe993iU-162">
          <mxGeometry x="60" width="20" height="20" as="geometry" />
        </mxCell>
        <mxCell id="V7aKo0qsAvX8QTe993iU-167" value="3" style="rounded=0;whiteSpace=wrap;html=1;" vertex="1" parent="V7aKo0qsAvX8QTe993iU-162">
          <mxGeometry x="40" width="20" height="20" as="geometry" />
        </mxCell>
        <mxCell id="V7aKo0qsAvX8QTe993iU-168" value="8" style="rounded=0;whiteSpace=wrap;html=1;" vertex="1" parent="V7aKo0qsAvX8QTe993iU-162">
          <mxGeometry x="140" width="20" height="20" as="geometry" />
        </mxCell>
        <mxCell id="V7aKo0qsAvX8QTe993iU-169" value="7" style="rounded=0;whiteSpace=wrap;html=1;" vertex="1" parent="V7aKo0qsAvX8QTe993iU-162">
          <mxGeometry x="120" width="20" height="20" as="geometry" />
        </mxCell>
        <mxCell id="V7aKo0qsAvX8QTe993iU-170" value="6" style="rounded=0;whiteSpace=wrap;html=1;" vertex="1" parent="V7aKo0qsAvX8QTe993iU-162">
          <mxGeometry x="100" width="20" height="20" as="geometry" />
        </mxCell>
        <mxCell id="V7aKo0qsAvX8QTe993iU-171" value="9" style="rounded=0;whiteSpace=wrap;html=1;" vertex="1" parent="V7aKo0qsAvX8QTe993iU-162">
          <mxGeometry x="160" width="20" height="20" as="geometry" />
        </mxCell>
        <mxCell id="V7aKo0qsAvX8QTe993iU-172" value="10" style="rounded=0;whiteSpace=wrap;html=1;" vertex="1" parent="V7aKo0qsAvX8QTe993iU-162">
          <mxGeometry x="180" width="20" height="20" as="geometry" />
        </mxCell>
        <mxCell id="V7aKo0qsAvX8QTe993iU-173" value="Bins" style="text;html=1;align=center;verticalAlign=middle;whiteSpace=wrap;rounded=0;fontFamily=Times New Roman;fontStyle=1" vertex="1" parent="V7aKo0qsAvX8QTe993iU-148">
          <mxGeometry y="190" width="60" height="30" as="geometry" />
        </mxCell>
        <mxCell id="V7aKo0qsAvX8QTe993iU-174" value="Anomaly Score" style="text;html=1;align=center;verticalAlign=middle;whiteSpace=wrap;rounded=0;fontFamily=Times New Roman;fontStyle=1" vertex="1" parent="V7aKo0qsAvX8QTe993iU-148">
          <mxGeometry x="0.5" y="225" width="60" height="30" as="geometry" />
        </mxCell>
        <mxCell id="V7aKo0qsAvX8QTe993iU-175" value="" style="endArrow=classic;html=1;rounded=0;exitX=1;exitY=0.5;exitDx=0;exitDy=0;" edge="1" parent="V7aKo0qsAvX8QTe993iU-148" source="V7aKo0qsAvX8QTe993iU-172">
          <mxGeometry width="50" height="50" relative="1" as="geometry">
            <mxPoint x="162.5" y="139" as="sourcePoint" />
            <mxPoint x="329.49999999999994" y="203" as="targetPoint" />
          </mxGeometry>
        </mxCell>
        <mxCell id="V7aKo0qsAvX8QTe993iU-176" value="" style="endArrow=classic;html=1;rounded=0;exitX=0.68;exitY=0.954;exitDx=0;exitDy=0;dashed=1;exitPerimeter=0;" edge="1" parent="V7aKo0qsAvX8QTe993iU-148" source="V7aKo0qsAvX8QTe993iU-150">
          <mxGeometry width="50" height="50" relative="1" as="geometry">
            <mxPoint x="222.49999999999994" y="145" as="sourcePoint" />
            <mxPoint x="135" y="192" as="targetPoint" />
          </mxGeometry>
        </mxCell>
        <mxCell id="V7aKo0qsAvX8QTe993iU-177" value="" style="endArrow=classic;html=1;rounded=0;exitX=0.428;exitY=0.997;exitDx=0;exitDy=0;dashed=1;exitPerimeter=0;entryX=1;entryY=0;entryDx=0;entryDy=0;" edge="1" parent="V7aKo0qsAvX8QTe993iU-148" source="V7aKo0qsAvX8QTe993iU-149" target="V7aKo0qsAvX8QTe993iU-168">
          <mxGeometry width="50" height="50" relative="1" as="geometry">
            <mxPoint x="219.49999999999994" y="129" as="sourcePoint" />
            <mxPoint x="217.49999999999994" y="190" as="targetPoint" />
          </mxGeometry>
        </mxCell>
        <mxCell id="V7aKo0qsAvX8QTe993iU-178" value="" style="rhombus;whiteSpace=wrap;html=1;fillColor=#B9E0A5;strokeColor=#97D077;" vertex="1" parent="V7aKo0qsAvX8QTe993iU-148">
          <mxGeometry x="215" y="87" width="12" height="12" as="geometry" />
        </mxCell>
        <mxCell id="V7aKo0qsAvX8QTe993iU-179" value="" style="rhombus;whiteSpace=wrap;html=1;fillColor=#B9E0A5;strokeColor=#97D077;" vertex="1" parent="V7aKo0qsAvX8QTe993iU-148">
          <mxGeometry x="199" y="18" width="12" height="12" as="geometry" />
        </mxCell>
        <mxCell id="V7aKo0qsAvX8QTe993iU-180" value="" style="rhombus;whiteSpace=wrap;html=1;fillColor=#B9E0A5;strokeColor=#97D077;" vertex="1" parent="V7aKo0qsAvX8QTe993iU-148">
          <mxGeometry x="103.5" y="119" width="12" height="12" as="geometry" />
        </mxCell>
        <mxCell id="V7aKo0qsAvX8QTe993iU-181" value="" style="rhombus;whiteSpace=wrap;html=1;fillColor=#B9E0A5;strokeColor=#97D077;" vertex="1" parent="V7aKo0qsAvX8QTe993iU-148">
          <mxGeometry x="158.75" y="59" width="12" height="12" as="geometry" />
        </mxCell>
        <mxCell id="V7aKo0qsAvX8QTe993iU-182" value="" style="triangle;whiteSpace=wrap;html=1;direction=north;fillColor=#FF0B0B;strokeColor=#EA6B66;" vertex="1" parent="V7aKo0qsAvX8QTe993iU-148">
          <mxGeometry x="274.27" y="21" width="12" height="12" as="geometry" />
        </mxCell>
        <mxCell id="V7aKo0qsAvX8QTe993iU-183" value="" style="rhombus;whiteSpace=wrap;html=1;fillColor=#B9E0A5;strokeColor=#97D077;" vertex="1" parent="V7aKo0qsAvX8QTe993iU-148">
          <mxGeometry x="138.5" y="30" width="12" height="12" as="geometry" />
        </mxCell>
        <mxCell id="V7aKo0qsAvX8QTe993iU-184" value="" style="rhombus;whiteSpace=wrap;html=1;fillColor=#B9E0A5;strokeColor=#97D077;" vertex="1" parent="V7aKo0qsAvX8QTe993iU-148">
          <mxGeometry x="99" y="9" width="12" height="12" as="geometry" />
        </mxCell>
        <mxCell id="V7aKo0qsAvX8QTe993iU-185" value="" style="rhombus;whiteSpace=wrap;html=1;fillColor=#B9E0A5;strokeColor=#97D077;" vertex="1" parent="V7aKo0qsAvX8QTe993iU-148">
          <mxGeometry x="189" y="103" width="12" height="12" as="geometry" />
        </mxCell>
        <mxCell id="V7aKo0qsAvX8QTe993iU-186" value="" style="rhombus;whiteSpace=wrap;html=1;fillColor=#B9E0A5;strokeColor=#97D077;" vertex="1" parent="V7aKo0qsAvX8QTe993iU-148">
          <mxGeometry x="162.25" y="121.5" width="12" height="12" as="geometry" />
        </mxCell>
        <mxCell id="V7aKo0qsAvX8QTe993iU-188" value="&lt;span style=&quot;font-family: &amp;quot;Times New Roman&amp;quot;; font-size: 18px; font-weight: 400; text-wrap-mode: wrap;&quot;&gt;KNN&lt;/span&gt;" style="text;strokeColor=#d6b656;fillColor=#fff2cc;html=1;fontSize=24;fontStyle=1;verticalAlign=middle;align=center;" vertex="1" parent="V7aKo0qsAvX8QTe993iU-148">
          <mxGeometry x="306.15" y="69.5" width="78" height="29" as="geometry" />
        </mxCell>
        <mxCell id="V7aKo0qsAvX8QTe993iU-189" value="" style="rhombus;whiteSpace=wrap;html=1;fillColor=#B9E0A5;strokeColor=#97D077;" vertex="1" parent="1">
          <mxGeometry x="377.70000000000005" y="859" width="12" height="12" as="geometry" />
        </mxCell>
        <mxCell id="V7aKo0qsAvX8QTe993iU-190" value="" style="rhombus;whiteSpace=wrap;html=1;fillColor=#B9E0A5;strokeColor=#97D077;" vertex="1" parent="1">
          <mxGeometry x="377.70000000000005" y="912" width="12" height="12" as="geometry" />
        </mxCell>
        <mxCell id="V7aKo0qsAvX8QTe993iU-191" value="$$\mathbf{z}_{T^{\prime}}$$" style="text;whiteSpace=wrap;fontSize=15;align=center;" vertex="1" parent="1">
          <mxGeometry x="672" y="765.58" width="160.43" height="62.96" as="geometry" />
        </mxCell>
        <mxCell id="V7aKo0qsAvX8QTe993iU-193" value="" style="endArrow=classic;html=1;rounded=0;entryX=0.5;entryY=1;entryDx=0;entryDy=0;" edge="1" parent="1" target="V7aKo0qsAvX8QTe993iU-87">
          <mxGeometry width="50" height="50" relative="1" as="geometry">
            <mxPoint x="559" y="794" as="sourcePoint" />
            <mxPoint x="539" y="753" as="targetPoint" />
          </mxGeometry>
        </mxCell>
        <mxCell id="V7aKo0qsAvX8QTe993iU-194" value="" style="endArrow=classic;html=1;rounded=0;exitX=1;exitY=0.5;exitDx=0;exitDy=0;" edge="1" parent="1" source="V7aKo0qsAvX8QTe993iU-87">
          <mxGeometry width="50" height="50" relative="1" as="geometry">
            <mxPoint x="631" y="685" as="sourcePoint" />
            <mxPoint x="669" y="684" as="targetPoint" />
          </mxGeometry>
        </mxCell>
        <mxCell id="V7aKo0qsAvX8QTe993iU-196" value="" style="shape=trapezoid;perimeter=trapezoidPerimeter;whiteSpace=wrap;html=1;fixedSize=1;direction=south;fillColor=#fff2cc;strokeColor=#d6b656;" vertex="1" parent="1">
          <mxGeometry x="992.0000000000002" y="673" width="41.65" height="81.03" as="geometry" />
        </mxCell>
        <mxCell id="V7aKo0qsAvX8QTe993iU-198" value="&lt;font&gt;$$U-Net(\hat{\epsilon})$$&lt;/font&gt;" style="text;html=1;align=center;verticalAlign=middle;whiteSpace=wrap;rounded=0;" vertex="1" parent="1">
          <mxGeometry x="1011.0000000000001" y="751.58" width="60" height="30" as="geometry" />
        </mxCell>
        <mxCell id="V7aKo0qsAvX8QTe993iU-200" value="" style="shape=trapezoid;perimeter=trapezoidPerimeter;whiteSpace=wrap;html=1;fixedSize=1;direction=north;fillColor=#fff2cc;strokeColor=#d6b656;" vertex="1" parent="1">
          <mxGeometry x="1040.0000000000002" y="673" width="41.65" height="81.03" as="geometry" />
        </mxCell>
        <mxCell id="V7aKo0qsAvX8QTe993iU-211" value="$$\mathrm{Eq.(3)}$$" style="text;whiteSpace=wrap;align=center;" vertex="1" parent="1">
          <mxGeometry x="1050.9969532100108" y="1073.9974322396577" width="139" height="45.85" as="geometry" />
        </mxCell>
        <mxCell id="V7aKo0qsAvX8QTe993iU-219" value="" style="group" vertex="1" connectable="0" parent="1">
          <mxGeometry x="1259" y="659" width="132" height="122.57999999999993" as="geometry" />
        </mxCell>
        <mxCell id="V7aKo0qsAvX8QTe993iU-220" value="" style="shape=internalStorage;whiteSpace=wrap;html=1;backgroundOutline=1;dx=26;dy=25;fillColor=#f5f5f5;container=0;strokeColor=#666666;gradientColor=#b3b3b3;" vertex="1" parent="V7aKo0qsAvX8QTe993iU-219">
          <mxGeometry width="50" height="50" as="geometry" />
        </mxCell>
        <mxCell id="V7aKo0qsAvX8QTe993iU-221" value="" style="shape=internalStorage;whiteSpace=wrap;html=1;backgroundOutline=1;dx=26;dy=25;fillColor=#f5f5f5;container=0;strokeColor=#666666;gradientColor=#b3b3b3;" vertex="1" parent="V7aKo0qsAvX8QTe993iU-219">
          <mxGeometry x="50" width="50" height="50" as="geometry" />
        </mxCell>
        <mxCell id="V7aKo0qsAvX8QTe993iU-222" value="" style="shape=internalStorage;whiteSpace=wrap;html=1;backgroundOutline=1;dx=26;dy=25;fillColor=#f5f5f5;container=0;strokeColor=#666666;gradientColor=#b3b3b3;" vertex="1" parent="V7aKo0qsAvX8QTe993iU-219">
          <mxGeometry y="50" width="50" height="50" as="geometry" />
        </mxCell>
        <mxCell id="V7aKo0qsAvX8QTe993iU-223" value="" style="shape=internalStorage;whiteSpace=wrap;html=1;backgroundOutline=1;dx=26;dy=25;fillColor=#f5f5f5;container=0;strokeColor=#666666;gradientColor=#b3b3b3;" vertex="1" parent="V7aKo0qsAvX8QTe993iU-219">
          <mxGeometry x="50" y="50" width="50" height="50" as="geometry" />
        </mxCell>
        <mxCell id="V7aKo0qsAvX8QTe993iU-224" value="" style="shape=internalStorage;whiteSpace=wrap;html=1;backgroundOutline=1;dx=26;dy=25;fillColor=#f5f5f5;container=0;strokeColor=#666666;gradientColor=#b3b3b3;" vertex="1" parent="V7aKo0qsAvX8QTe993iU-219">
          <mxGeometry x="15" y="10.579999999999927" width="50" height="50" as="geometry" />
        </mxCell>
        <mxCell id="V7aKo0qsAvX8QTe993iU-225" value="" style="shape=internalStorage;whiteSpace=wrap;html=1;backgroundOutline=1;dx=26;dy=25;fillColor=#f5f5f5;container=0;strokeColor=#666666;gradientColor=#b3b3b3;" vertex="1" parent="V7aKo0qsAvX8QTe993iU-219">
          <mxGeometry x="65" y="10.579999999999927" width="50" height="50" as="geometry" />
        </mxCell>
        <mxCell id="V7aKo0qsAvX8QTe993iU-226" value="" style="shape=internalStorage;whiteSpace=wrap;html=1;backgroundOutline=1;dx=26;dy=25;fillColor=#f5f5f5;container=0;strokeColor=#666666;gradientColor=#b3b3b3;" vertex="1" parent="V7aKo0qsAvX8QTe993iU-219">
          <mxGeometry x="15" y="60.57999999999993" width="50" height="50" as="geometry" />
        </mxCell>
        <mxCell id="V7aKo0qsAvX8QTe993iU-227" value="" style="shape=internalStorage;whiteSpace=wrap;html=1;backgroundOutline=1;dx=26;dy=25;fillColor=#f5f5f5;container=0;strokeColor=#666666;gradientColor=#b3b3b3;" vertex="1" parent="V7aKo0qsAvX8QTe993iU-219">
          <mxGeometry x="65" y="60.57999999999993" width="50" height="50" as="geometry" />
        </mxCell>
        <mxCell id="V7aKo0qsAvX8QTe993iU-228" value="" style="shape=internalStorage;whiteSpace=wrap;html=1;backgroundOutline=1;dx=26;dy=25;fillColor=#f5f5f5;container=0;strokeColor=#666666;gradientColor=#b3b3b3;" vertex="1" parent="V7aKo0qsAvX8QTe993iU-219">
          <mxGeometry x="32" y="22.579999999999927" width="50" height="50" as="geometry" />
        </mxCell>
        <mxCell id="V7aKo0qsAvX8QTe993iU-229" value="" style="shape=internalStorage;whiteSpace=wrap;html=1;backgroundOutline=1;dx=26;dy=25;fillColor=#f5f5f5;container=0;strokeColor=#666666;gradientColor=#b3b3b3;" vertex="1" parent="V7aKo0qsAvX8QTe993iU-219">
          <mxGeometry x="82" y="22.579999999999927" width="50" height="50" as="geometry" />
        </mxCell>
        <mxCell id="V7aKo0qsAvX8QTe993iU-230" value="" style="shape=internalStorage;whiteSpace=wrap;html=1;backgroundOutline=1;dx=26;dy=25;fillColor=#f5f5f5;container=0;strokeColor=#666666;gradientColor=#b3b3b3;" vertex="1" parent="V7aKo0qsAvX8QTe993iU-219">
          <mxGeometry x="32" y="72.57999999999993" width="50" height="50" as="geometry" />
        </mxCell>
        <mxCell id="V7aKo0qsAvX8QTe993iU-231" value="" style="shape=internalStorage;whiteSpace=wrap;html=1;backgroundOutline=1;dx=26;dy=25;fillColor=#f5f5f5;container=0;strokeColor=#666666;gradientColor=#b3b3b3;" vertex="1" parent="V7aKo0qsAvX8QTe993iU-219">
          <mxGeometry x="82" y="72.57999999999993" width="50" height="50" as="geometry" />
        </mxCell>
        <mxCell id="V7aKo0qsAvX8QTe993iU-232" value="" style="group" vertex="1" connectable="0" parent="1">
          <mxGeometry x="847.43" y="934.58" width="145" height="161" as="geometry" />
        </mxCell>
        <mxCell id="V7aKo0qsAvX8QTe993iU-233" value="" style="shape=internalStorage;whiteSpace=wrap;html=1;backgroundOutline=1;dx=26;dy=25;fillColor=#f5f5f5;container=0;strokeColor=#666666;gradientColor=#b3b3b3;" vertex="1" parent="V7aKo0qsAvX8QTe993iU-232">
          <mxGeometry width="50" height="50" as="geometry" />
        </mxCell>
        <mxCell id="V7aKo0qsAvX8QTe993iU-234" value="" style="shape=internalStorage;whiteSpace=wrap;html=1;backgroundOutline=1;dx=26;dy=25;fillColor=#f5f5f5;container=0;strokeColor=#666666;gradientColor=#b3b3b3;" vertex="1" parent="V7aKo0qsAvX8QTe993iU-232">
          <mxGeometry x="50" width="50" height="50" as="geometry" />
        </mxCell>
        <mxCell id="V7aKo0qsAvX8QTe993iU-235" value="" style="shape=internalStorage;whiteSpace=wrap;html=1;backgroundOutline=1;dx=26;dy=25;fillColor=#f5f5f5;container=0;strokeColor=#666666;gradientColor=#b3b3b3;" vertex="1" parent="V7aKo0qsAvX8QTe993iU-232">
          <mxGeometry y="50" width="50" height="50" as="geometry" />
        </mxCell>
        <mxCell id="V7aKo0qsAvX8QTe993iU-236" value="" style="shape=internalStorage;whiteSpace=wrap;html=1;backgroundOutline=1;dx=26;dy=25;fillColor=#f5f5f5;container=0;strokeColor=#666666;gradientColor=#b3b3b3;" vertex="1" parent="V7aKo0qsAvX8QTe993iU-232">
          <mxGeometry x="50" y="50" width="50" height="50" as="geometry" />
        </mxCell>
        <mxCell id="V7aKo0qsAvX8QTe993iU-237" value="" style="shape=internalStorage;whiteSpace=wrap;html=1;backgroundOutline=1;dx=26;dy=25;fillColor=#f5f5f5;container=0;strokeColor=#666666;gradientColor=#b3b3b3;" vertex="1" parent="V7aKo0qsAvX8QTe993iU-232">
          <mxGeometry x="15" y="10.579999999999927" width="50" height="50" as="geometry" />
        </mxCell>
        <mxCell id="V7aKo0qsAvX8QTe993iU-238" value="" style="shape=internalStorage;whiteSpace=wrap;html=1;backgroundOutline=1;dx=26;dy=25;fillColor=#f5f5f5;container=0;strokeColor=#666666;gradientColor=#b3b3b3;" vertex="1" parent="V7aKo0qsAvX8QTe993iU-232">
          <mxGeometry x="65" y="10.579999999999927" width="50" height="50" as="geometry" />
        </mxCell>
        <mxCell id="V7aKo0qsAvX8QTe993iU-239" value="" style="shape=internalStorage;whiteSpace=wrap;html=1;backgroundOutline=1;dx=26;dy=25;fillColor=#f5f5f5;container=0;strokeColor=#666666;gradientColor=#b3b3b3;" vertex="1" parent="V7aKo0qsAvX8QTe993iU-232">
          <mxGeometry x="15" y="60.57999999999993" width="50" height="50" as="geometry" />
        </mxCell>
        <mxCell id="V7aKo0qsAvX8QTe993iU-240" value="" style="shape=internalStorage;whiteSpace=wrap;html=1;backgroundOutline=1;dx=26;dy=25;fillColor=#f5f5f5;container=0;strokeColor=#666666;gradientColor=#b3b3b3;" vertex="1" parent="V7aKo0qsAvX8QTe993iU-232">
          <mxGeometry x="65" y="60.57999999999993" width="50" height="50" as="geometry" />
        </mxCell>
        <mxCell id="V7aKo0qsAvX8QTe993iU-241" value="" style="shape=internalStorage;whiteSpace=wrap;html=1;backgroundOutline=1;dx=26;dy=25;fillColor=#f5f5f5;container=0;strokeColor=#666666;gradientColor=#b3b3b3;" vertex="1" parent="V7aKo0qsAvX8QTe993iU-232">
          <mxGeometry x="32" y="22.579999999999927" width="50" height="50" as="geometry" />
        </mxCell>
        <mxCell id="V7aKo0qsAvX8QTe993iU-242" value="" style="shape=internalStorage;whiteSpace=wrap;html=1;backgroundOutline=1;dx=26;dy=25;fillColor=#f5f5f5;container=0;strokeColor=#666666;gradientColor=#b3b3b3;" vertex="1" parent="V7aKo0qsAvX8QTe993iU-232">
          <mxGeometry x="82" y="22.579999999999927" width="50" height="50" as="geometry" />
        </mxCell>
        <mxCell id="V7aKo0qsAvX8QTe993iU-243" value="" style="shape=internalStorage;whiteSpace=wrap;html=1;backgroundOutline=1;dx=26;dy=25;fillColor=#f5f5f5;container=0;strokeColor=#666666;gradientColor=#b3b3b3;" vertex="1" parent="V7aKo0qsAvX8QTe993iU-232">
          <mxGeometry x="32" y="72.57999999999993" width="50" height="50" as="geometry" />
        </mxCell>
        <mxCell id="V7aKo0qsAvX8QTe993iU-244" value="" style="shape=internalStorage;whiteSpace=wrap;html=1;backgroundOutline=1;dx=26;dy=25;fillColor=#f5f5f5;container=0;strokeColor=#666666;gradientColor=#b3b3b3;" vertex="1" parent="V7aKo0qsAvX8QTe993iU-232">
          <mxGeometry x="82" y="72.57999999999993" width="50" height="50" as="geometry" />
        </mxCell>
        <mxCell id="V7aKo0qsAvX8QTe993iU-245" value="" style="group" vertex="1" connectable="0" parent="1">
          <mxGeometry x="1037" y="1152" width="132" height="159.76" as="geometry" />
        </mxCell>
        <mxCell id="V7aKo0qsAvX8QTe993iU-246" value="" style="group" vertex="1" connectable="0" parent="V7aKo0qsAvX8QTe993iU-245">
          <mxGeometry y="-17" width="100" height="100" as="geometry" />
        </mxCell>
        <mxCell id="V7aKo0qsAvX8QTe993iU-247" value="" style="shape=internalStorage;whiteSpace=wrap;html=1;backgroundOutline=1;dx=26;dy=25;fillColor=#dae8fc;strokeColor=#6c8ebf;" vertex="1" parent="V7aKo0qsAvX8QTe993iU-246">
          <mxGeometry width="50" height="50" as="geometry" />
        </mxCell>
        <mxCell id="V7aKo0qsAvX8QTe993iU-248" value="" style="shape=internalStorage;whiteSpace=wrap;html=1;backgroundOutline=1;dx=26;dy=25;fillColor=#dae8fc;strokeColor=#6c8ebf;" vertex="1" parent="V7aKo0qsAvX8QTe993iU-246">
          <mxGeometry x="50" width="50" height="50" as="geometry" />
        </mxCell>
        <mxCell id="V7aKo0qsAvX8QTe993iU-249" value="" style="shape=internalStorage;whiteSpace=wrap;html=1;backgroundOutline=1;dx=26;dy=25;fillColor=#dae8fc;strokeColor=#6c8ebf;" vertex="1" parent="V7aKo0qsAvX8QTe993iU-246">
          <mxGeometry y="50" width="50" height="50" as="geometry" />
        </mxCell>
        <mxCell id="V7aKo0qsAvX8QTe993iU-250" value="" style="shape=internalStorage;whiteSpace=wrap;html=1;backgroundOutline=1;dx=26;dy=25;fillColor=#dae8fc;strokeColor=#6c8ebf;" vertex="1" parent="V7aKo0qsAvX8QTe993iU-246">
          <mxGeometry x="50" y="50" width="50" height="50" as="geometry" />
        </mxCell>
        <mxCell id="V7aKo0qsAvX8QTe993iU-251" value="" style="group" vertex="1" connectable="0" parent="V7aKo0qsAvX8QTe993iU-245">
          <mxGeometry x="15" y="-6.420000000000016" width="117" height="112" as="geometry" />
        </mxCell>
        <mxCell id="V7aKo0qsAvX8QTe993iU-252" value="" style="shape=internalStorage;whiteSpace=wrap;html=1;backgroundOutline=1;dx=26;dy=25;fillColor=#dae8fc;strokeColor=#6c8ebf;" vertex="1" parent="V7aKo0qsAvX8QTe993iU-251">
          <mxGeometry width="50" height="50" as="geometry" />
        </mxCell>
        <mxCell id="V7aKo0qsAvX8QTe993iU-253" value="" style="shape=internalStorage;whiteSpace=wrap;html=1;backgroundOutline=1;dx=26;dy=25;fillColor=#dae8fc;strokeColor=#6c8ebf;" vertex="1" parent="V7aKo0qsAvX8QTe993iU-251">
          <mxGeometry x="50" width="50" height="50" as="geometry" />
        </mxCell>
        <mxCell id="V7aKo0qsAvX8QTe993iU-254" value="" style="shape=internalStorage;whiteSpace=wrap;html=1;backgroundOutline=1;dx=26;dy=25;fillColor=#dae8fc;strokeColor=#6c8ebf;" vertex="1" parent="V7aKo0qsAvX8QTe993iU-251">
          <mxGeometry y="50" width="50" height="50" as="geometry" />
        </mxCell>
        <mxCell id="V7aKo0qsAvX8QTe993iU-255" value="" style="shape=internalStorage;whiteSpace=wrap;html=1;backgroundOutline=1;dx=26;dy=25;fillColor=#dae8fc;strokeColor=#6c8ebf;" vertex="1" parent="V7aKo0qsAvX8QTe993iU-251">
          <mxGeometry x="50" y="50" width="50" height="50" as="geometry" />
        </mxCell>
        <mxCell id="V7aKo0qsAvX8QTe993iU-256" value="" style="group" vertex="1" connectable="0" parent="V7aKo0qsAvX8QTe993iU-251">
          <mxGeometry x="17" y="12" width="100" height="100" as="geometry" />
        </mxCell>
        <mxCell id="V7aKo0qsAvX8QTe993iU-257" value="" style="shape=internalStorage;whiteSpace=wrap;html=1;backgroundOutline=1;dx=26;dy=25;fillColor=#dae8fc;strokeColor=#6c8ebf;" vertex="1" parent="V7aKo0qsAvX8QTe993iU-256">
          <mxGeometry width="50" height="50" as="geometry" />
        </mxCell>
        <mxCell id="V7aKo0qsAvX8QTe993iU-258" value="" style="shape=internalStorage;whiteSpace=wrap;html=1;backgroundOutline=1;dx=26;dy=25;fillColor=#dae8fc;strokeColor=#6c8ebf;" vertex="1" parent="V7aKo0qsAvX8QTe993iU-256">
          <mxGeometry x="50" width="50" height="50" as="geometry" />
        </mxCell>
        <mxCell id="V7aKo0qsAvX8QTe993iU-259" value="" style="shape=internalStorage;whiteSpace=wrap;html=1;backgroundOutline=1;dx=26;dy=25;fillColor=#dae8fc;strokeColor=#6c8ebf;" vertex="1" parent="V7aKo0qsAvX8QTe993iU-256">
          <mxGeometry y="50" width="50" height="50" as="geometry" />
        </mxCell>
        <mxCell id="V7aKo0qsAvX8QTe993iU-260" value="" style="shape=internalStorage;whiteSpace=wrap;html=1;backgroundOutline=1;dx=26;dy=25;fillColor=#dae8fc;strokeColor=#6c8ebf;" vertex="1" parent="V7aKo0qsAvX8QTe993iU-256">
          <mxGeometry x="50" y="50" width="50" height="50" as="geometry" />
        </mxCell>
        <mxCell id="V7aKo0qsAvX8QTe993iU-277" value="" style="group" vertex="1" connectable="0" parent="1">
          <mxGeometry x="1028" y="936" width="132" height="122.57999999999993" as="geometry" />
        </mxCell>
        <mxCell id="V7aKo0qsAvX8QTe993iU-263" value="" style="shape=internalStorage;whiteSpace=wrap;html=1;backgroundOutline=1;dx=26;dy=25;fillColor=#cce5ff;strokeColor=#36393d;container=0;" vertex="1" parent="V7aKo0qsAvX8QTe993iU-277">
          <mxGeometry width="50" height="50" as="geometry" />
        </mxCell>
        <mxCell id="V7aKo0qsAvX8QTe993iU-264" value="" style="shape=internalStorage;whiteSpace=wrap;html=1;backgroundOutline=1;dx=26;dy=25;fillColor=#cce5ff;strokeColor=#36393d;container=0;" vertex="1" parent="V7aKo0qsAvX8QTe993iU-277">
          <mxGeometry x="50" width="50" height="50" as="geometry" />
        </mxCell>
        <mxCell id="V7aKo0qsAvX8QTe993iU-265" value="" style="shape=internalStorage;whiteSpace=wrap;html=1;backgroundOutline=1;dx=26;dy=25;fillColor=#cce5ff;strokeColor=#36393d;container=0;" vertex="1" parent="V7aKo0qsAvX8QTe993iU-277">
          <mxGeometry y="50" width="50" height="50" as="geometry" />
        </mxCell>
        <mxCell id="V7aKo0qsAvX8QTe993iU-266" value="" style="shape=internalStorage;whiteSpace=wrap;html=1;backgroundOutline=1;dx=26;dy=25;fillColor=#cce5ff;strokeColor=#36393d;container=0;" vertex="1" parent="V7aKo0qsAvX8QTe993iU-277">
          <mxGeometry x="50" y="50" width="50" height="50" as="geometry" />
        </mxCell>
        <mxCell id="V7aKo0qsAvX8QTe993iU-268" value="" style="shape=internalStorage;whiteSpace=wrap;html=1;backgroundOutline=1;dx=26;dy=25;fillColor=#cce5ff;strokeColor=#36393d;container=0;" vertex="1" parent="V7aKo0qsAvX8QTe993iU-277">
          <mxGeometry x="15" y="10.579999999999927" width="50" height="50" as="geometry" />
        </mxCell>
        <mxCell id="V7aKo0qsAvX8QTe993iU-269" value="" style="shape=internalStorage;whiteSpace=wrap;html=1;backgroundOutline=1;dx=26;dy=25;fillColor=#cce5ff;strokeColor=#36393d;container=0;" vertex="1" parent="V7aKo0qsAvX8QTe993iU-277">
          <mxGeometry x="65" y="10.579999999999927" width="50" height="50" as="geometry" />
        </mxCell>
        <mxCell id="V7aKo0qsAvX8QTe993iU-270" value="" style="shape=internalStorage;whiteSpace=wrap;html=1;backgroundOutline=1;dx=26;dy=25;fillColor=#cce5ff;strokeColor=#36393d;container=0;" vertex="1" parent="V7aKo0qsAvX8QTe993iU-277">
          <mxGeometry x="15" y="60.57999999999993" width="50" height="50" as="geometry" />
        </mxCell>
        <mxCell id="V7aKo0qsAvX8QTe993iU-271" value="" style="shape=internalStorage;whiteSpace=wrap;html=1;backgroundOutline=1;dx=26;dy=25;fillColor=#cce5ff;strokeColor=#36393d;container=0;" vertex="1" parent="V7aKo0qsAvX8QTe993iU-277">
          <mxGeometry x="65" y="60.57999999999993" width="50" height="50" as="geometry" />
        </mxCell>
        <mxCell id="V7aKo0qsAvX8QTe993iU-273" value="" style="shape=internalStorage;whiteSpace=wrap;html=1;backgroundOutline=1;dx=26;dy=25;fillColor=#cce5ff;strokeColor=#36393d;container=0;" vertex="1" parent="V7aKo0qsAvX8QTe993iU-277">
          <mxGeometry x="32" y="22.579999999999927" width="50" height="50" as="geometry" />
        </mxCell>
        <mxCell id="V7aKo0qsAvX8QTe993iU-274" value="" style="shape=internalStorage;whiteSpace=wrap;html=1;backgroundOutline=1;dx=26;dy=25;fillColor=#cce5ff;strokeColor=#36393d;container=0;" vertex="1" parent="V7aKo0qsAvX8QTe993iU-277">
          <mxGeometry x="82" y="22.579999999999927" width="50" height="50" as="geometry" />
        </mxCell>
        <mxCell id="V7aKo0qsAvX8QTe993iU-275" value="" style="shape=internalStorage;whiteSpace=wrap;html=1;backgroundOutline=1;dx=26;dy=25;fillColor=#cce5ff;strokeColor=#36393d;container=0;" vertex="1" parent="V7aKo0qsAvX8QTe993iU-277">
          <mxGeometry x="32" y="72.57999999999993" width="50" height="50" as="geometry" />
        </mxCell>
        <mxCell id="V7aKo0qsAvX8QTe993iU-276" value="" style="shape=internalStorage;whiteSpace=wrap;html=1;backgroundOutline=1;dx=26;dy=25;fillColor=#cce5ff;strokeColor=#36393d;container=0;" vertex="1" parent="V7aKo0qsAvX8QTe993iU-277">
          <mxGeometry x="82" y="72.57999999999993" width="50" height="50" as="geometry" />
        </mxCell>
        <mxCell id="V7aKo0qsAvX8QTe993iU-278" value="" style="endArrow=classic;html=1;rounded=0;" edge="1" parent="1">
          <mxGeometry width="50" height="50" relative="1" as="geometry">
            <mxPoint x="1089" y="1126" as="sourcePoint" />
            <mxPoint x="1089" y="1061" as="targetPoint" />
          </mxGeometry>
        </mxCell>
        <mxCell id="V7aKo0qsAvX8QTe993iU-280" value="$$\mathbf{z}_{t}$$" style="text;whiteSpace=wrap;fontSize=15;align=center;" vertex="1" parent="1">
          <mxGeometry x="974.5500000000001" y="1044" width="138.35" height="56.76" as="geometry" />
        </mxCell>
        <mxCell id="V7aKo0qsAvX8QTe993iU-281" value="$$\hat{\mathbf{z}}_t$$" style="text;whiteSpace=wrap;fontSize=15;align=center;" vertex="1" parent="1">
          <mxGeometry x="777.9969532100106" y="1043.9974322396577" width="150" height="59" as="geometry" />
        </mxCell>
        <mxCell id="V7aKo0qsAvX8QTe993iU-286" value="" style="edgeStyle=orthogonalEdgeStyle;rounded=0;orthogonalLoop=1;jettySize=auto;html=1;" edge="1" parent="1" source="V7aKo0qsAvX8QTe993iU-282" target="V7aKo0qsAvX8QTe993iU-283">
          <mxGeometry relative="1" as="geometry" />
        </mxCell>
        <mxCell id="V7aKo0qsAvX8QTe993iU-282" value="D" style="ellipse;whiteSpace=wrap;html=1;aspect=fixed;" vertex="1" parent="1">
          <mxGeometry x="1000.2069532100106" y="865.0674322396578" width="23" height="23" as="geometry" />
        </mxCell>
        <mxCell id="V7aKo0qsAvX8QTe993iU-283" value="&lt;span style=&quot;font-size: 15px;&quot;&gt;sigmoid&lt;/span&gt;" style="rounded=0;whiteSpace=wrap;html=1;fillColor=#f8cecc;strokeColor=none;" vertex="1" parent="1">
          <mxGeometry x="975.7099999999999" y="813.0000000000002" width="72" height="32.32" as="geometry" />
        </mxCell>
        <mxCell id="V7aKo0qsAvX8QTe993iU-307" value="" style="endArrow=classic;html=1;rounded=0;exitX=0;exitY=0.5;exitDx=0;exitDy=0;entryX=1;entryY=0.5;entryDx=0;entryDy=0;" edge="1" parent="1" source="V7aKo0qsAvX8QTe993iU-283" target="V7aKo0qsAvX8QTe993iU-338">
          <mxGeometry width="50" height="50" relative="1" as="geometry">
            <mxPoint x="696" y="1235" as="sourcePoint" />
            <mxPoint x="952" y="821" as="targetPoint" />
          </mxGeometry>
        </mxCell>
        <mxCell id="V7aKo0qsAvX8QTe993iU-310" value="" style="edgeStyle=orthogonalEdgeStyle;rounded=0;orthogonalLoop=1;jettySize=auto;html=1;exitX=0.5;exitY=0;exitDx=0;exitDy=0;entryX=0.5;entryY=1;entryDx=0;entryDy=0;" edge="1" parent="1" source="V7aKo0qsAvX8QTe993iU-338" target="V7aKo0qsAvX8QTe993iU-339">
          <mxGeometry relative="1" as="geometry">
            <mxPoint x="917.5" y="808" as="sourcePoint" />
            <mxPoint x="905" y="739" as="targetPoint" />
          </mxGeometry>
        </mxCell>
        <mxCell id="V7aKo0qsAvX8QTe993iU-312" value="" style="endArrow=classic;html=1;rounded=0;exitX=1;exitY=0.5;exitDx=0;exitDy=0;" edge="1" parent="1" source="V7aKo0qsAvX8QTe993iU-339">
          <mxGeometry width="50" height="50" relative="1" as="geometry">
            <mxPoint x="956" y="714" as="sourcePoint" />
            <mxPoint x="990" y="714" as="targetPoint" />
          </mxGeometry>
        </mxCell>
        <mxCell id="V7aKo0qsAvX8QTe993iU-314" value="" style="endArrow=classic;html=1;rounded=0;exitX=0.478;exitY=1.087;exitDx=0;exitDy=0;exitPerimeter=0;" edge="1" parent="1" source="V7aKo0qsAvX8QTe993iU-200">
          <mxGeometry width="50" height="50" relative="1" as="geometry">
            <mxPoint x="1375" y="952" as="sourcePoint" />
            <mxPoint x="1252" y="715" as="targetPoint" />
          </mxGeometry>
        </mxCell>
        <mxCell id="V7aKo0qsAvX8QTe993iU-315" value="" style="endArrow=none;dashed=1;html=1;dashPattern=1 3;strokeWidth=3;rounded=0;" edge="1" parent="1">
          <mxGeometry width="50" height="50" relative="1" as="geometry">
            <mxPoint x="83" y="611" as="sourcePoint" />
            <mxPoint x="1477" y="602" as="targetPoint" />
          </mxGeometry>
        </mxCell>
        <mxCell id="V7aKo0qsAvX8QTe993iU-316" value="$$\hat{\mathbf{z}}_0$$" style="text;whiteSpace=wrap;fontSize=15;align=center;" vertex="1" parent="1">
          <mxGeometry x="1340" y="710" width="150" height="59" as="geometry" />
        </mxCell>
        <mxCell id="V7aKo0qsAvX8QTe993iU-317" value="" style="shape=trapezoid;perimeter=trapezoidPerimeter;whiteSpace=wrap;html=1;fixedSize=1;direction=east;fillColor=#D4E1F5;" vertex="1" parent="1">
          <mxGeometry x="1287.002864367552" y="825.0029955651728" width="100.42796005706134" height="48.9532100108814" as="geometry" />
        </mxCell>
        <mxCell id="V7aKo0qsAvX8QTe993iU-319" value="$$\mathrm{D}$$" style="text;whiteSpace=wrap;fontSize=24;fontFamily=Times New Roman;align=center;fontStyle=3" vertex="1" parent="1">
          <mxGeometry x="1286.22" y="808.07" width="102" height="79" as="geometry" />
        </mxCell>
        <mxCell id="V7aKo0qsAvX8QTe993iU-320" value="" style="shape=image;verticalLabelPosition=bottom;labelBackgroundColor=default;verticalAlign=top;aspect=fixed;imageAspect=0;image=data:image/png,iVBORw0KGgoAAAANSUhEUgAAAFMAAABTCAYAAADjsjsAAAAAAXNSR0IArs4c6QAAAARnQU1BAACxjwv8YQUAAAAJcEhZcwAADsMAAA7DAcdvqGQAADAySURBVHhe7ZxpkFzXdd/P9Dr7AsxgXweLREpkKEoqitCWSDEjR7KkchbJW+xIFZWdKqeSSpwPqkRGnFRUrnKSshM6JVtSUiW7KonWULYsO7FZSixSNmmJBE2CBEkQBDAABgNgMJh9enom/9//vDsD52u+5va8fu/de/Zz7rnnvu6ennZv3+bGxkZsbmxG1HqCV61WC/q43tSL+56I6G52BRdRFxzgEbop8N1uXtdrOm8KH4DEj83N6IEAVDbpM0Q06vXEy8Gtxi18gKtDW/jGFU5KyFXy5kCeLjoIrEfIwDeMBzx0wK9pXHLoyk1wmxpnhDfElqYaB194HkfuygqVCObBhQkB200YDdh8hhCxek8aAsEMqiH6uhvd6HQ7ZlqERVuY1QCS4TY592DE7pYhQVgXDGaGQRE0JEC70RCJNEmtVheduq5QAMjKEKKHwslCjtQgVC2d5LLs4tGRQ5DLsugeBwALvS1HiA40cfa6zpuSE93EOerqq/UgD3QyWHAA79BbM336kVMXJic9JVMNGuoDuqfZaoMhYFyTngIeGehDmRxH9IwAxlHGQGrFgzDa8rZgawjFvTpgmooR6XWx2lCkSzkkg14yrDCBAqcn1nGsorkoWHgB1VRkY8jESDnBwZmAWEH1c6YRrUlvmxeG6OreXbrvER9u6OtvtWKlsy6aChLJYAAA1Zi5zEg6uWZMdyah425lamYMIooznCO0iisEuAZG95DF8927o3J9XX26VGMMpsWgnIlAG0aHI7viYliNg0vENupVhEkh4LnGtJ3uumkJwyfgjWOZkSjji4aBMRA86MO5yG7+6jZdMHQNFG8rHc1GXVhVmvGzEf3A5AxCTrQxsqaGboC1L8V4vZuRsy6B5Rg1opJwTzjdigCCZX7B/41624QRH5owaEqxVr1hPI8BKzoF1/jWAKIcimBRIGKgQ1/mb9Fv1KuZ0SNempZEixuj5R1ScqJ4ZBpKeVG+YfdlGnAK0d2qHI5gJJwm091ibEZTvGwLXSO/6epIRyr1yTbIs53T1e9pjpK6J2xLvkxUBMwXvXgBJRzWakBgCAsmgQxU6Ze5DtErkyi/FFwbwcZiFKXuahpiMQTXC4voEJGlbU9tGlNNKUMylAVUQpp2I1cU62N0hlEcZ3BreXMGkI4wIIaHH7YpfQgELPpspyS/VUdq4HzqiJQAxEhHXkKwBgIKCA9wzxjEQMgcaNPKkDrLkOsoL7rwgGFZUDBekygQNI3IzpwnGhvKRTgPehqzaRnTDfjoSsrgniixFBpfrwy5blq6oM8zhmtLmq8u+nRiw/3bBtObeFKV5OwgnTk12fHiIhiCAzTSArPAhoQBh/qIYi9ygoI+jjdeS5HpqVcxwhyoxnUmfY2JMQ2CZuC7bOA1ENR4iCMcvK8+hPR0NX08m/AWyg1+eZ1GzutUgHsckSknZWERqWt1VerRi+izwcH3qC9MEl5UElbaxkpOMqMdzp0N6sBJh5GDEa+pIFhfl84VHTxKcCB75v6kZwMzrBN4tfQlqxrlgRAIfaJGBBC0CwO9EN5TBiw1q6BQrNeYuhkdGJqD8iO9aVA3LjsaA4/phKEQlWlLgyrRAxwszAZ4HTaq4SNWJQ/RhHFBgg/KFPnaWoFrkqmDQ8EBxlyh7yVPV0ATYZLJBu1RFGeZQ7zZBpQ9GgemKz3RD2PimGYj5cHp1MqpnfTKMkJolZVhSFRVxo9Wo2XWeIGDvl4JLHryMsaVcvIkuhEF4maloEkU0TIaEVSR5WhCcA/ZaJk2qms46IyQKOlShl7TRwamv3J3FVHwAYdr0hALJimElr1cwDlnCsb0NNcLWswqHJaGZJTDSDYkY3aYrqlFubA+jNqR6ihsmu1eX2JxM2BaCKMpoK1imD4TFSjIJkRcgYojCoNsGD3vq+ld3ZdpQUO9NGE2+HBsaEqT8IHkMFXh4uCcroVG4ZdQGD7tTsTZJWlcOQ4YDOdWkQA7Rcwo9WKnPAsdjM6Qi3F4C94zruKN0YnoEmS5uUBv6OkK67tkEBlySccLRBbL3tWYswyjE0JzW683HZ2SASoiCvmcbhiRBgNEw/Ol3IFW+lrjVYQ5Ylhc1C2OqZRoIJcXIPgKjoIFiijHVC70t1ZpHTn1sBPuTkOpVDXfDFKQgIRo6sY0hwC6GAd46wYPpMMyCjLk1RhlVLoNGGgJPUsjLKxBEc5uGsg0hMzopCONSqu8KS/aAXq3NDROggPWk6bqzuZB6+NpZ+0wRkYF4zgFIxKIjgbRIU91vBBxVplVyQMhlDGm3nBYpoZsWzLo8HQVD3iSDqyT+nF81tkpV1Ir72bv/rsbciB/QqScNQgBnNs7FMrS1oTUxxiNEsWJWS8WJ4hnNOAbIgwjVIxNE2HUoc6maELPHrRUKKiXDZmR5HyrlgaFfu7CZKqoax+/SsrRa52pKBq8WHWJHPjVJRO6sFggE5iws5EEj7sJFagz60gB4GPgQo+IA6JM7xI44HKflQlO5B79tejKwfACtqdBaWSMomhpEJSgVR8KU+Nl1NCTBD21q5wBDv1IhYkNqxeCwqylqYEz7VHwgC1Nl2lINQmMoJ6mkgG6SYnG4iPjrme5BGLyEQ8iVnLa5SgpgxU8+LtOJmrNRiN2AukKelWkWhGil8vEtSGFS/Bwj+MzjTFjk45nWUOCIBBDG4SfrovoHqrOFPQ2rEBK1PG0BTi8sy2cBMK4YOqttim/CQ9BeVqDUlkOgSPQZJJnHfZw9viauxKt9Ektn3MmEN3AZXQ2FcFlpm3zBI9pCBb9utZVXytzdUdGyFTFuN4d2Wl8ejAi5R+6eddkrNSXawycM1n8CBIGnGQFI3SDpleo5xqOBDf3EXEm412G1ZNxpJKiQh7TPa2HKSpATx26ENKGZSXEqOnhBMcwBVAKKp9tNRyA11UDM0pJ5JwoeKZrTr/cgfg5gmCKg6Dn3OrLNBK7NVbi5bVMa45knf1SvyNNcEBDh8W061ILbI0QLLIRMBlSaXhY9tSbrU3nDB0IBpIjrwgkFGSvaz7Qg9EtOIxNOHG2z7T09N0jvGFY6DrQGFGfnalIRmmMhjPglNO7GI8Fh4VlmyLvzAxyaMqLo7iGSUVDgqfz02lpMmrnplOWZ5IqEq/o6qehm+UTYLEJwcKit6Ut42rEI3jgMOIZ5Cmje09RU0mCICFUo44QOe1I+EylUn6AgzOABJdxrpsSGEGkir0LsZoUtcM4yzCeOqZcngswXclPjHe1pevE2vqqebGwQBdZmc4uqdwHaaQUD5Fm94YRyYW58IDDXj+DANres+sasbOCSVnySZNkQkaNOWWILuOZvnLHZqcbJgMDHJyttCKjSChMwPTB+Rl9CJZIrPCiZzhomAhaqJMpk8mYA+OKuv7WJDCgLTEnVdCyGMcpCJgkgae+ZNeSU6oba2urHhsZbsfEjh05s/zUKWLn2HDc88bj0WrnbgRlMFnSQ9ZML8ivobx2hGb0w5+RDIaihXZ1TaUzy5pGA4YHwj3YxzDYInWFp2eSEDkwNLNGutROQwxkCMHK97rISI2YGBuLucVFEe6JtohDECPzwtMk4BSAKK8e7YsAL7zsiKPLvWClSnDi4xD3pRDuB7bR34of+cAHY9fYeNy6Padp2YmJPbtiYt/eeMPkiTh+YF9cuHrd0QsORmQd9CzTPa4l+gfb7VjtrImD9Klkh76jz3yJ0FxCcGbqJAMKpjiqI2IN7Vby2YXoyKue4o5q6GJ40cmnRhpSR5YNREoJbcQyS6GmGWy0SvMiiBug2e3miBY+XXh8k+hDCd0zBeFBYi9oxbw2Rl89fu6nPxFPPPV0HD5wPJ55+sn44A+9P0LROLFjd1y7OhU378zH+upqfPeJ78WNuXnJkhFDpHiFl6JJUm+WS2dymc4pN2fKL2Zd5kwM1Gy2lAbWBMYUzqjOJlwiVfpSsQL9fzdCyhflU0KmNl2OLggS9gJjm9VQsrZHsQq9GBI4M9Khc6n9fNIZoT3GfXWdhhQ/0OiuBMOQbU23T3/q52Nudi5OHDoS169cjBNvOBn9I4OCUK3aasb+gwdjoK8V7d5WvP2hBx0IyGtelkdN51wguebIgIA/D2mgRaQRw6SxsmmwIWmCc3C5mYBpsshxzcYFGs6d1kL0NGEd3jDGM/kEKHfAPTKajauGUXNqZ4TC3GWHIqI8OadxDUrCqa8yngVQP1A81rOw7t2mV++vxz/7h/8kNjSvWHH7+wbiwftOxkc/9EhsqEhfWFiEg+U7MTkZ7f7BePncea/2KOmpJog85/awzB6nMBubSiR14t06SYftKY5RU/akpubUYMpbtXLXT50xKqEmWBETajJJAD7zYaWTcBrB0LCALatsBi3C5S6Gh7TgFYI4xI/XJE9LecX81YetgaMOhD4yQjUFJOcIob8W/+rT/zxWRPfSnRvRNzAam51u3JpfjakrU7F/z87Yv3sPqFauI3/cnL4RFy9fig+9731x74mTokNxDWXoY4CMNq7pzoVyO4I5ZURn6kEO9HJeFRb3ZUFLurqXMp61nurorrSosx3RrLdOM0bW8N5cXm+ZaN5Dg22gldc7kVT5QkZKRi2VKq4ETBIYwUsoYAB3mSIHZdlhQlYAWjxIbg7W41c/80tx4eKMFpvp6FnviekbU9Fo1WKluxJTMtrkoUnPEhYHhP/N//rlePaZH8QPP/KBWFlfiZHRYZfSt+bumA9Pd4ginJkyI4P0Uz93uZdH2tJkeAnFfa7YiubqGnxg03hpCw7SEjMx6YpPfm7OEO/JlkPDQkylec6Hd9nDgli876ZxvFOYkSZ45O9cqz6MzYrNAgRsUYwr7WWjOVCPXzn92bh6aTpuzt6KhZXlWFmZj/vJk4OjzCxFsxQSOZdqMuU3Hnsszrx0Nh5553t5FuadmEd0fv211+L8xUsypFhgTLV8ICIXYFvLmv2WQXJ6sbJcaTjswD2zLKOTByx3b1KqxmVRR61GHZi2UY2lqHTupDRAPEeTLuVFThiXfrO1x7hl+iKoBBQQDxgYYBUkUteU0HNlxYMg6FKEBgfa0dm3Gf/5N34zbl6bjaXF+XjptYtx/vKFeOtbHoz20A7z64hPrckMkFN1/NbXH4s/lyH/+l9+j6yEw9TfxCjIrwW/t88G0yWMMpIlC7y9UAmlPKJzxKmiwEmGVwB5glvOsjGRHtKPcQzPzCWYKI4SiRqzWnN4RtgDAP1qFNZr1YIBYGHCOEJZTMEgPFCs8G0dWTIwpDHBsPrzFRhJWtFQ4wJFpRTi/c/Pfzf+1t/4ybg8fVFljnY7ndvKf39VBXQzmj3Ki1ICddakLIvM6y+/quNc/NSP/micPHpC/DOdNJQ/4c+nni+++rJlsJWJQFuR2YQoOJ4HLdpCin+bXUAKrZOoYWz1gw698pTetNEXJ4gW9wQKtgCPLS9R3FNvtODqcMaT5BvKG8iKt4HxRIpXmUUES3lEM9lK/vI4DjobrNoeoCVzcmRjsBG//Au/GANDQ/H0mafj1z/3xXjvu0/Fux8+FRMT43KEIkqzwgW9ZBKRuPDy+fjS174cf/PDPxKTk8ejqxWIVf8HZ581X9rj3/uz6CwvbfO1IXOMC6covXIBkXGlg5+9GggibFyI1pyJjnDhkKNLagOXg1s/nwXbcI5cLQCKIPKKIWRER6boO7eoC8PyDktWeXNSM7TlkjN0zoQMGfIXCnFdXCBBVeC1h1rxy//0MzHUbsX//t4fx+rcarzzXaeiZ3A49uzZLU4kflZr8lXL02fu+oym91fj7/3dvyNjfjCaqjVbvaoN27W47433+OHx5StXgg9RZAqxIt/JCOJNMCETBiLquEY9+rnhCZbuuNFfpoNibM8wRtSJnvmRNjk3McDhiZrp6qi3mq3TyQD7Y7RNF85Zi3Hc1WACYb0YMWlHDlM5Synaxgbf0UnwIhhPeFrDrfj0P/iFmLs9H8+++Odx49admJq5ou3qUPy7X/oXceT40Th/XnXj2npsanFC9j958qn48jcfi0/+zI/Fex56p1bMRowMDsadhXnT3RD7dnvACo72D8XV69NpOPFtMNMsG8oKgPBRyyfm2ecZ6aaz+BEsGZe8ZyDkI8acqbRcXOU40+G+oqV2mpWYIz8+7dpzDJu6DhByBcwYTWb05ZnoKat519/dSSNSNoCLIftH+uIffeLn4saN2zF7Yzqeevk1rS7L0RgdjZ/98Y+b4qAi7t573xTnXj0vUhvx0pmz8fhTT8ZP/8TfjgcffHssaWov3FmInTtHo0+7n8XF5VhTrq2x0iKYDL1jeDCuTl9DKpkRo5K60iysB9y3FE25CFXGQFadM9eiBWfKK6oA3VH+VC/skLqpnzOw1TjLt+pMMTQd3tJgPktCrJ6JV2EsuAQxsMugzCUcCccUr4bNtNlqRP+Okfjkx34qZrVFpPx56rkzsWOgFUcOHIxHTr07NuT5uYWlWJcjO1pE3nHfm+Jbv/N4nL96IX7+k5+KN97zBhlxyfz6lE9mZ+dV1PdpweqqxtxQTXo9xsbGYuralRjfuUuRveZt4eqaDC0Z0CHzWsqWhsyoJNqQvrxTweBIVwGVwTAV+qEWOCzEOIU+B5cG6ppJMmb9tJUWMsbC8kQZU4z79GoVhaYpdGFn+aRL92FIyihC391mzT76HhmCenDmxs1YWbgdf/bC89qtTMbJ48dlkOG4JQNPDA8LOhP9QK0dT/zR4/H73//j+Mcf+7gcMeEpzZTtb9djWkY9sn8izpy/GMqa8eqF1+PkocPx+tWp2DG+U1Ha0XlcKzx1MU5aFFW9JGhX0xw9/S0OCZpPxVAg+21ibm22VCT34EQijlDqEFyqjIPAzFlNJzYzIEaksAUiWeisa6YKdw2VT6x03snwEjycWb0hksY0TTUxUufErvE4cfR49ChSZhQ9f/j0c/HwW94Se/ft17Ysn3YrW8dzr7wSy6ur0V1ZicuvXojT/+FzcfLIsVhQ9M1oWq+sLEar3YyVtW5M7t0Rl69dV2QPx53ZhTi4f6+iteat5o6hEW8Edo6NxObIiKZOQwsVZVBKxedRRCWLBvqhR4k76tnUh+XEZpDudy1I6mem+qMSvdAXvTEqzcZttVqQMIFkSasMCSW1jNQ0MttOrsxAGJQ6aywYYuIGA7127ZmIk5MnYnl5OXo1PV95/fX40F/7QPS0iYj8aiGrI/t7P5TVsXJ7Ib7x+78XH/3IR+J973qYOaWCvRlLSgG1em+Mj/bH7O1ZwfbGWZVKQ4N9MaYq4PrMtejtH4wfvPBcHNq9Xzl5Robs0WJ2QWPX48VXzssoGUHIzTOCStCMVDuVlqYtSxYaEhQsaAZGXxmVwGOcp/+2A3bSqd5stE4TcTwAhQSeYbWDMXtbLM6jekg5JkWYArYkYPjkDmfbGX197RgaGNI++Xa0VOK8eOlyfPzDH44NKegvjgIoz0CTiMfTF7QgffuJ78Tf/5mfiFPveMhROCZjzcnArXordo4PxtrckrzfG5cvX4ue/t7Yr8i/cu1yHN97OJ56/vl44+TRmJu7pdW95adODW01683eGBsalFFnxLL6ggIGcNsOGJvP+hIo1Zj7Mn759nLqTHBBIucvYxgUKvV6s32aTwOTQPIhdzDsEkJnwrt8HOoHvWKKh1y06mBhwKCMg99VvlpZXfbXsOe0Yv/khz+iUie3ZpRg0HAxLHQi9LtPPhHPnjsbv0J5dPhYLGmFxiHLq2sWZmhkIG4qVw709sfMzevCb8Ub9hxUenghjhw6EWfOvRiHDuyJ3kbbAgwPDcfFaZVcO8Zj6vrVGBvdYX435dwSBORLdjhZ9sCG/jRkFuPYgCNtAJ53OhW+PwuyUbdhXRrBiDvsDJCfuGAcWz+jtUwRf1pYMUtPcpUPBZw3TDYFamrv/OMf/ahqQUWjaPtPB7CUJ10tFr/1u9+O27evxxc++y+jb3gkukoZw319cWt+Pga1z+5TBN6eX4iJwZE4M38jBuv9cWBib1yZej2Os/BcuRi9I4NxcHR3LM7fjJHRiXjuJS1ycsprly/F4QP7YqDNfn0jZm7NxaochI6pX0abXzp7TbC+qYXfGZfBMskRAPlhnetynVNb7KdZ0KBod0dGXT560xiG0z1jGBIkjFk+faQl84wuE3RDGB44tOOR979feW1YKUT4Gma3QapoVDnzq994TPl2IX72E5+QIG2t7oMpg2bKgHJlTcacuTUTg/0jsbQ0H/v3nYz9I8MxNXU59hzcF/My8ppkOzK+J85PXdD4kXjmhWfi0MGDWrQ6MaA0wS7q9vxt75LeeHTSzz+JeHTxZz1qIuGIzN0d+mf0cTDY22pbb+CsOmMgMq6r7FaweVVWy8+t01BZoPPoixUa0DSWp4JHcjyjFQGozdzlVpNB2oPKVZpefPKY/t70c9IW8Cq+v/Z735JSy/Gpj/2Yau2WFpnlWJqbE+V1Tz0lvZjRNrK3PSyKG6oZFRFr89oyXot9k4OxvHAnFlZX4p4jx+NPXng2Dh86GC+88nwcVO06MjwqNZRzR3bE6spyDA8MqMhvR+9QfzygGpbat0eLG9FVVuVUTHLKwP7sK/9s5fKZOQ7gjMGdazkElPW3UwefTmImBt0nZZSqdQExeyfJmikGr7lYT8OTT3N1pFWpQDuRe44pinbtzs2AQHEKAjS1//tPX/lKrCyvxDveer+jqKfWVIR1Y13GWVhdj6GhAU3faUWTdjnKcxjk4P4D8eTTT8tJE5rq6/GhH/6wxu7Et7W/f899D8SVmaux1qO6VtH58sVzcc/hw/5Elcd2733ooVhcWnIlcOjAIf+2Z3r6ug1D2sqFRjeSnfO6ZKGudQipo+W0l6FEUe9vS6u/RC842FD9zdN+FkiIp/kMQHItZQBGzp+N6FJj3tibUMYoH+RXmBZoVEU457n5udi7a8IC+JGc3n77q1+JersRD7z5ftO/MnND28MxTzHu1zqrMavacqDZrxw4K0fVYs+eA/Hd739fNevh6G+2Yn5pQ5E8H2dvdePoRH+sdlcVuRHHVBa9cvHVODY5GTO3b+N5ydpVQX8lTt5zTywvLmg7eyseuPdeXS/G1Rs3LCdphXUhAyTXDS8uKG5d1avLNCBRqKCpNAaeMWxWbytnAsQMB47BXN/yGSLIfDUmCTHOSDKlD6I95NYqNcB+eWWV/OHrmzLM7omdUe9EfOnrX4/h0cE4euwEZaD44VUWhluxf2IciWJxeVUG3YyFxXmZoSZn7Iqnnz8TRzWNRwfaiq47cUAR/9z5s3Hq5M54TYZdV5Qf3380zp57Pg4Jbvb2HPV69PYNSJZl6d4Tt1QFvOut74gpna8rKt/2l96ivhva3s5lgNhYaZQ0pHSh36t12sMG0zURmo0x3qsxpjlTMw2UaNT4tNwyMob1sw/U8qiNBE4vC1FaOpnSWDVhQPfN6Wvx+JNPxuTRg7Fn74Foi0OPknq7xfQRsDw5rSgZGBiRQI2YXZhzrbhzaCxen7oY+/bs1VTDMfNx7OBkPPmDp+PNJ++NazNz8ZYHxlXLDscPnns23nTvPXFHEVnXrmd+ccn5eXhY9al2YEzl81r5T73jbTF15arq06vx8H0Pxv/6/tMyJJFUJM/ciIIOFNGwVrxx1uEguktff09fs85FO/kgkRyaes9VjsSKofKJM8bFU/ktNgzVJ4OUz0YwrutNXXi6i8myImZFW8Rp7csfvP++aLSpA7W2DA7IYIsq7Eeis7Jk2H07J7SX740rMnxvX6+2i0Mxr3y5b9++2OisxcLyYuwb3xvfPfNcPHT/m1SX8hGvVv3uWKxszMWB/W+K66ope1SOIU+7UfM3ORTeWnC0Gmu7Siq7Mn0zfujdp+KV1y7Ef/zK12JtSZGrF7oyO4EhNnLDQuCgby5AaFXe+1ot7d7YrKTdsI2M2czSaKtoyumJQORLA4kgxiJGuaex4q2ud5xLaUxXojfTAn0Zzfm9zlrs3r3bSZ3k3lnfjF1a6edUS7ZEDkU2FeWvK1p2jQ6rYJdRtSXcJQMvLS8oV3dcW/7p88/G0SMHo6Zw3oiOVvLD8QffeyIa/UPRWZ2P3UPtuKMSimeebUULitzQVpSPJwb7+2N5bTU2kKfdH7uiEd96/HHpiT6pE0pSY1MaYQPrLN0Zz+8W5XTGDi6fgHH8Ai3jN1v82oIbPsUr+1TuqTPZJTCcxO09nbFn7ldzSlBO+Mk6pM1cV3IzEBTmOIan+fe/+T5XCozwqGF5rRNXr16N/sGh6NfU3KeFhqjEMXv37Nequ+w6dZ8ccfaVV+INxyZjWNN/Vbz37zsUf3rmmTgxuT/GVdAjww3t0a9evxWDYwNxcO9+Rf2aYeeVk/v7+uXEpbizsBKLKt5/7fNfdDorBkIPgodPHPx7SglPzbtePZ+lGUY3aEj5tzWG1dWU9pQzbV2I5ZMfAOgjhEu0wTDrz6SMefEWRiL63CdYHELiBo4IJWVQy1H0Tikv7pnQ6q7X7ZuzcfblVxR5y47yVm+vP/Pmq4hjw0Px+vQV1amjMdo7FM+/di5OHjka62vLsSJeu8Ym4tmXXoyJvTtjQgX9imZIX2Mzdo/vVhm1FtdFe01wO0dGVQKvavY04o5mQaikqask+dePfl66yJTSNR9g556dtYa+jL2MPA1adnSlB4PycKfLrzMqKL+0A6o+N+fWeJWnuC7RpmuiTf3OjRUTzJ/byrzPFRFcmNOPJ9m/UzbJERKWhw89VAZ6kcv4nmTh21LEHTl4OAaHhlRrLseJI0dibGDYtCbGd6kcmovRkRHl1t1+djk5eVRTkskVcsiq9uGjSg9NLWJDcXNmJl569YIWuz1xcPdO5WdtCLSq37h+Mx599HOxsLZixyM5M8z66o7nD1y5ypDRG8q7a0opaE1goSsHgYa+3BFgrlV1rnJm7jkxJFPZ1N3gkntWCDBOI296SmzlF8TCO8CkeTEkV3wCyHhZvExj0+IJX3Erp7GI0X/7jsoUncd3jEVnrcunEDEog16Q8Zjuw/3aSiqvHlWhf1UFeI+Y8WjvxRdelKFHY6h3UA5ajnGVTqsqzK9NXVVVoG2qdmNrWt0/829+LVa0MYCX7YZ+ajyj9SeV3FdGYgQ92O38xQfh6C/5dcOZx4j5EIg9u6Y5CjHobVRFhuZkKwPAJAUQgqYuLSGyuURSBwsVOZbazLlUY3zjDFinEo27QMYZitT8aCBTCzkWDy9pp7KgY2x4RN5vxo1b05rWoyrW2zEzOxMHtLpfvzmjaS1cKTChrSNPvV5Syti5Y8Qr96Iifo/ybFc5+dWLF7Vir8ZvfP4LcVtpBJmyyWi6QSckTeezFvCV79Qdm6A/xiwm9rqBwLpnvNiLeFXR3nZplFOScxpQb95GQcSbfL384EPGggQWYIrxBAVyNhDMubYhM9dsbECPA8FzWtqwlVDIkxELLKN5z8OIPlXSA4q4TmcjLt2Y9pduF1VSXZmejoYWtla712XLDu2gcMC5l8/7syC+GNGrvLZz1864dvlSfPbRX4/ZuYUt+kQSBkMeIgujsOjp0i1NhGIYUuPCwwIESzFk6gQU9kiMeqMqjSCWPzLKCOPe0ahXRmd6DgIom2TSSHjOX0GhRx2OYGCqAzopqHC5EIwFsGAYj29/lC/tq5zqdGKgtx0N1XKgEc1DAwMa1zZKDr330JH4L4/9ThzeMx613n5XxTt27NBQM545+1wcGB+PrnRgj/mLv/o575DgVb5klbLLkMhWBUfZgDhwdMEMdBpzoKWufi4huuicVJIeUQmEdK6ddrSIMETUq6YLYYCEEe8OZw7g6SPzEZE07nFCejqhgK6GRUsXCKoXwjkXiad/7SZKRAmRwNMcImFxeckrPSUIBO0UrdCkojktJo+881R88Rtf9dayT5UAKWR0uD9eOnchLk5djtH+wfi3//7RuE1utTxWyfzTfNu1IjISADTyeElR/gRBDXjuwffhTnRJ2KSOA7QDks0dSRgAC5dQzrCGoKY7eVBc7SUTymmtyPaXtRyReBni6t/kKy4yBGLVlAv4witYRIBOLva9e8L7gncu0gD3fc2myy0iFBiehzbF+z0PvF116RVXEYva3bzv4bfHf/vmf4+TqklDOCh34tixeP75c/ElRe6ydk3IlFphBZQnGlPetmciMjPd8xlrgc2pDQq654wSaG48ZOScrRkyxhCMdGtoAcpcZmiAWMFhyi392Ec3GWVEbE55jMUUtKBqRGmC5DmNDh5TSALIOfS1NH0xElbNKMjUgFDwgB6lGZGxpm1gR1tSptclFeXveuvb4oLyoLwRi0sr8Z5T71TZsx43ZlWYK0Ln5mbjf/zhHykatdBJ/hIY5sUMsLm41bv+0BHeQHCPUZDDqc5dBIZHDWeipmBgw2ezMWv+EgIWt7LyiA2qaxo5RBMBPMgmQZqJJBPY0xAA4oaRsHjTolXCgO8VXLUbD2ade3WkyZNKb7PlBQIlswTJH3vOLq9Fu1mPS9q7/5W3PRRTly86Ly7LoCf374kvfPnLsUvR+dvf/F1XFOCnnlWu51AHnODFk7AUCzmJWHRFh/xaJfKBJAmjZZlS3opoOkZ68vQrKQq3ociEiUNXFK14OauBiwipGBKmwdTlyEwoNQTVONtFn2EgWPAyNyFwUQBw2BfsNCSw+eMq+JikFsWmFwF/K07TvqfRiktXL8eptz2svDqvY8VFeV26f+f7z7BUW0kvdPhUb3aqiGWUQrORxmIUvZFLdz4je6WrZcb5LHy6zuIcCjKfyJO//c+jLL2gM84gVj4GFWhiqGEQACWXASul9aIxZZHCAjv8daXpy49bEZUpAc389pgEqJSBWyWT76AmH4gHJUvmKAF7GLZsBzHEqlflrhaVhfiDJ74Tx7SXf/XlV+P8ubNx5sUXNIb8wiWCkBKiUGeWuA+6FNlWRm3b4eiQPbqCjjVFJpwjKrol4KxzJZ+dIx3dpyZHt/h5KJcm5+jxHAG+AlKfN/0yVPEexoemLswcg4FGriUSoUO//VvhlAcpGTniqj6mFbUiZQsCQ5IVnM+O8Lw5aXHwRyOKEPhPHj8Wl2cX4+jOgZi6ei3mlQLq4k1zrWwqaRhHmGRCfvrZx3tzooPozIUXWHJp9XM+4bhMEwzTWMFuXZHGs8z9PAGzFfSq8Pv6BjZ5KABTLwY+UimI0mfD+B4sohAvw0DE1YlBwM9pxAEBnWWgVCbZETHFwygGXZgRkdkqOB8MMd3SoYhN2cIzTKKXJ3/r2hDA01iw8znh+VcUriDuIm1Zys1faABt9yEWAUXKQj/GPLnUMmpp6qBP4yU91sr/xZCcOpMbdRYCXuUBKdOUh8H41UT1gnzuivIa5lZKF7zsAMMnIwTwmGBc+DJm+BSWsVw9U/P80WlGOZ9Hw4ceIhiHEBFrClRmK47IhSxl0J9bx4scMy3HoI4cOL40HjESpdAGjf+7QTMN6NmQ3OdTL/DTecQoAwLiTzd2lLZknM2MX1NYYHU4GnVuaYVc6/D0CENnuUJj2mQ+SWPkTgHFYYZzqnrOeKIuHrkQAZ8Rmqt2blP5+cvK2qr5IpCfyggHWjTgU5HCwWLaUPAnIh3pHsuZ5ByqVp7qgG/6UGEMeo6qggcfprhoOapoyQ2ZoSGWuk9zwtcQ6qS/+vF+SkUO8YCIW0Ch5LPKREQhYoQRUoO/rMCdzjjCcGLIuH+qzLXwePHHPbBEKAYjz1pRwfIrYPAq0cWrcobw+T0jDVk9R6yYIHEYZ8urae2nUeRsHCVdRIcXD0Lo4x4a9KUTG4kLR8KLWli0XeIJOp/vZlrbghd9U7KDMhiEpB7ZJp/aoKQ8J+H5sRF+JdLIUcDCHiEyJYi5FgQbGzxeOmcUcMc7RmeKCl+S5oOUNJBOsaE36PkbHsLjH1H5t+iogIDCdzoQ/1pNe/ZO/mQaXBSHn1NACqf+IgNnzSZFucfV4JsOzYahPN3Vl6kKMdNx8CMqzV8HX+Epv0SBBosSBuaaAOCcEYzkgmlqNUdEI1Qs8zoF4YLcUYznUQRVP0l6W0ymEPkIbOEAi/F0Xaa0oXWdC1Y6L6uA7X0yLX+2VxyV9KCBA/JLYmkEdm4u59QYA5/al/FsWTMSGB4Xc+/2oAk/dNriSjqQUXVm4wJ96tPU3eCM6CAokBlIBgBkSPr7l1y62yoRBFS+rgwkxHgBTMLOFTa/5XC38WGWe1YY5RQjWsmx5ccGRBDRnl+nSWOV70Yy9YkCGh+g0bKu04VoygxOJchj42uMz2qQheexNOdZlNc1UYeyxlejUC8fitlBwHpccIZlsWW3xe9BJZuOsgDBPYPJaDlmOsKTwY0OTF9v7ybKAggR6iyixKaqoqYQISrIlWlC+mCTwsG21KJM5/JxBUy8G1HLlVsXhSDniho04EdfOoyVlzxeYCWLXkSWjVHhwROH+L9yCTZ3LGmQDJnUy7PMjWgVDNGqO+iRLm2PiiYNw/sLZ9zwZp4ZUPwwy3pLTvqsvN56Wq1e9aXV3aUL8gmresklGFEXoHsaQR2BkwrSVKEvGBTAAbnrEYT7cUCu4I4qHV7RhV9W2lxBcXQ6ELp+CYmXczh75A5fKEiDIGsaAWjRFFpOUKvmJ01rAqgksWltWHha1gwC9KXPmxLgJAgiMJYyoyI2SqcwBp3sSxrwyBWBDh/kMIyRSJiNe9eHFYp/eF9FH+LBeHsxQBSETA2g4wgTrWJIGrsHT3cBGVrdmcg5MJJOXpA0JgAMSeMXFCl60kIZMJwyLGPy5Y2oNozgKR/zl2jVsK5R2wcUxYvZidMwajGQAEURDN4tlBDQGxzGhYGddFgWcg9KFwRYFlIWVZeJnIr3KTpspIqNx3WPQZhqYJGfvJpDUf1EoiU3Bwmj68xH7N0V4cL3h3Z2JPnW2ps+TkDQlA8jpmFRGCOX6EjeDKQ8PuvWOBhKcFxjjEpyy4ZefF07+SRtsKDJ7AHIjhKcKYgW8qEjHJJSvtcoI+gq02/r6bIYcZ8KInRG6bKiI+uwJIHACEgqYMcBLZT04mE6aWj6uCdK4JHfxiUWMRw4+UEWn5uXR3c0R4logOuUo1IJzhkRrNR8rEaZxSJTxrIGdAAI19Na9zaOKJX86ZOVwFi52HGm8X0AngcQQlmlFPmL07lLuzEj4NHT6u13zJmQPQipFIJ8xqqI0CalPzwIHAQhZ2WNYalSOCnNw4rMt0rkzkUMIIho27v0mMLd2MZHFnr42eEq/95bHciFAfPTT11XDoWHo043pKBiMMagxzNQtpY4tDQkxwHInumKtUCOYWGpHIScrgxEyAsWQlkwGbZaXKFScjx0aljfq6yIU7qwcCAODcK5QIidhEY8Vk9Zv5q65KPc36boeFhw9MFMXR0JyDfbBFxNbwRwZrSgVkgMoQEtkDyuy7Xq/6Sn6ml63lGAxQZzgu+cijgopDErBi21ZW3ibRz6q750HQdLBmeVYXxDw4GTxjYzv6VO5FwMTFhliqKlIU2Lv/z/mbqXhdrah/PNMYzrbw+rG2ArSROejYVgGiVqHQmCyZIhw11QNiSKUhvyqWJGN0pDL6MWp6TQKE+UFSHLmQaQjCv6nrbKsRjL09fnIn5xFEbjGho4SjCFLkIJuEQT8mHMvDeAhnGXbrgvY8nB+Lo1HpAEBGPYx0EBkIkKnBoSY/Ty4ZT62M8yjpC5gyHKtvfG/vKCQgQwP/8zrHKY4C0s2FVUoDxKlcIcGo4MRDBe0s/o2HYkzbskVxFyCoLrZaXFG140F/3q72vl7gmHup8DA+hFqkIvnXRmhEhOXRwkaslRMmkYySyDeGT5xExgiOeZBBO0c5YwU/1wOL2BgjCpmBspIwtF4E2fuUgsDMRtmSZWCsJgCbArvzVrKTywTDUbQcIjJFMzcxG+hYaJWwaELD+fSX7J02UJxsagNj7wGIMpijyib9/wAIUdVGImZVq5Kr04NhecVLjSyfeiTU2t/uJUmrkIwHwlA07Yjky98QUlbvBt/hHeig4UkiHxKAzwjJXyuxjACIIyTOajFAbj1VRmZLEO3cRxbrW0gtW1ULnR4U5ubADydNlzV9ZJ+jY8jjOiGv30QA+SevMQeZQTxk38Enmcsw/JpIVguAYXsg4HrnXG4Z5hwEBbGEme6+SFnUxCTXoLSc7Jf+ThLh2EcO5TMVuayOi6qu5EkChLUyE8pcXWqKcdGBlFuhLs1m8NLVia2bZQI+KQxZFJXtSF6blUEa1kuoVj04gm6YVyJcfs4oqWIgcYdZinWgaF9JPVgMO5OA4gqgRKP5qfMRgb3YWvfr5xR0unCN8zMXkB11b9nf9aXJSZKn4io0EmIvFojmoOaV8JVH3eXYhYCpRg3iMrrCCGd/2xATBmhmGgQ4SkLfOenAVv8jN4peVVoZ8RU8ThXXeC97i3t4LZSgmpPM5Fji14a4ApNcZzS9KQFjVHqkb81XJfIRdRmtPXzwbu6kvtsrHoss7glLul///t/7lF/B+x2NXW2exEwgAAAABJRU5ErkJggg==;" vertex="1" parent="1">
          <mxGeometry x="1295.72" y="924" width="83" height="83" as="geometry" />
        </mxCell>
        <mxCell id="V7aKo0qsAvX8QTe993iU-321" value="$$\hat{\mathbf{x}}_0$$" style="text;whiteSpace=wrap;fontSize=15;align=center;" vertex="1" parent="1">
          <mxGeometry x="1265" y="1005" width="150" height="59" as="geometry" />
        </mxCell>
        <mxCell id="V7aKo0qsAvX8QTe993iU-322" value="" style="endArrow=classic;html=1;rounded=0;entryX=0.5;entryY=0;entryDx=0;entryDy=0;" edge="1" parent="1" target="V7aKo0qsAvX8QTe993iU-317">
          <mxGeometry width="50" height="50" relative="1" as="geometry">
            <mxPoint x="1338" y="783" as="sourcePoint" />
            <mxPoint x="1597" y="807" as="targetPoint" />
          </mxGeometry>
        </mxCell>
        <mxCell id="V7aKo0qsAvX8QTe993iU-323" value="" style="endArrow=classic;html=1;rounded=0;exitX=0.5;exitY=1;exitDx=0;exitDy=0;entryX=0.5;entryY=0;entryDx=0;entryDy=0;" edge="1" parent="1" source="V7aKo0qsAvX8QTe993iU-319" target="V7aKo0qsAvX8QTe993iU-320">
          <mxGeometry width="50" height="50" relative="1" as="geometry">
            <mxPoint x="1423" y="1138" as="sourcePoint" />
            <mxPoint x="1473" y="1088" as="targetPoint" />
          </mxGeometry>
        </mxCell>
        <mxCell id="V7aKo0qsAvX8QTe993iU-324" value="&lt;span style=&quot;color: rgb(51, 51, 51); font-style: normal; font-variant-ligatures: normal; font-variant-caps: normal; letter-spacing: normal; orphans: 2; text-indent: 0px; text-transform: none; widows: 2; word-spacing: 0px; -webkit-text-stroke-width: 0px; white-space: normal; background-color: rgb(236, 236, 236); text-decoration-thickness: initial; text-decoration-style: initial; text-decoration-color: initial; float: none; display: inline !important;&quot;&gt;$$loss_{2D}$$&lt;/span&gt;" style="text;whiteSpace=wrap;html=1;align=center;fontFamily=Times New Roman;fontSize=15;fontStyle=1;strokeColor=default;dashed=1;" vertex="1" parent="1">
          <mxGeometry x="1093.7" y="722" width="96.3" height="54" as="geometry" />
        </mxCell>
        <mxCell id="V7aKo0qsAvX8QTe993iU-325" value="" style="endArrow=none;dashed=1;html=1;dashPattern=1 3;strokeWidth=3;rounded=0;" edge="1" parent="1">
          <mxGeometry width="50" height="50" relative="1" as="geometry">
            <mxPoint x="83" y="1295" as="sourcePoint" />
            <mxPoint x="1477" y="1286" as="targetPoint" />
          </mxGeometry>
        </mxCell>
        <mxCell id="V7aKo0qsAvX8QTe993iU-326" value="" style="endArrow=none;dashed=1;html=1;dashPattern=1 3;strokeWidth=3;rounded=0;" edge="1" parent="1">
          <mxGeometry width="50" height="50" relative="1" as="geometry">
            <mxPoint x="83" y="360" as="sourcePoint" />
            <mxPoint x="1477" y="351" as="targetPoint" />
          </mxGeometry>
        </mxCell>
        <mxCell id="V7aKo0qsAvX8QTe993iU-332" value="" style="group" vertex="1" connectable="0" parent="1">
          <mxGeometry x="1117" y="652" width="125" height="49" as="geometry" />
        </mxCell>
        <mxCell id="V7aKo0qsAvX8QTe993iU-329" value="$$\mathrm{T&#39;}$$" style="text;whiteSpace=wrap;align=center;labelBorderColor=none;textShadow=0;labelBackgroundColor=none;fontSize=15;" vertex="1" parent="V7aKo0qsAvX8QTe993iU-332">
          <mxGeometry width="125" height="49" as="geometry" />
        </mxCell>
        <mxCell id="V7aKo0qsAvX8QTe993iU-331" value="" style="group" vertex="1" connectable="0" parent="V7aKo0qsAvX8QTe993iU-332">
          <mxGeometry x="9" y="16" width="61" height="27" as="geometry" />
        </mxCell>
        <mxCell id="V7aKo0qsAvX8QTe993iU-328" value="" style="html=1;verticalLabelPosition=bottom;align=center;labelBackgroundColor=#ffffff;verticalAlign=top;strokeWidth=2;strokeColor=#000000;shadow=0;dashed=0;shape=mxgraph.ios7.icons.reload;direction=south;" vertex="1" parent="V7aKo0qsAvX8QTe993iU-331">
          <mxGeometry width="27" height="24" as="geometry" />
        </mxCell>
        <mxCell id="V7aKo0qsAvX8QTe993iU-330" value="X" style="text;html=1;align=center;verticalAlign=middle;whiteSpace=wrap;rounded=0;fontSize=8;" vertex="1" parent="V7aKo0qsAvX8QTe993iU-331">
          <mxGeometry x="16" y="6" width="45" height="21" as="geometry" />
        </mxCell>
        <mxCell id="V7aKo0qsAvX8QTe993iU-333" value="&lt;b&gt;Stage1：train MLP&lt;/b&gt;" style="text;html=1;align=center;verticalAlign=middle;whiteSpace=wrap;rounded=0;" vertex="1" parent="1">
          <mxGeometry x="86" y="365" width="115" height="30" as="geometry" />
        </mxCell>
        <mxCell id="V7aKo0qsAvX8QTe993iU-334" value="&lt;b&gt;Stage2：train Diffusion&lt;/b&gt;" style="text;html=1;align=center;verticalAlign=middle;whiteSpace=wrap;rounded=0;" vertex="1" parent="1">
          <mxGeometry x="86" y="622" width="146" height="30" as="geometry" />
        </mxCell>
        <mxCell id="V7aKo0qsAvX8QTe993iU-279" value="$$\mathbf{z}_{0}$$" style="text;whiteSpace=wrap;fontSize=15;align=center;" vertex="1" parent="1">
          <mxGeometry x="941" y="1187" width="138.35" height="56.76" as="geometry" />
        </mxCell>
        <mxCell id="V7aKo0qsAvX8QTe993iU-336" value="$$\hat{\epsilon}=\epsilon_\theta^{(t)}(\mathbf{z}_0)-(1-mask)\sqrt{1-\bar{\alpha}_t}(\hat{z}_t-z_t)$$" style="text;whiteSpace=wrap;align=center;fontSize=18;fontFamily=Times New Roman;fontStyle=1;fillColor=#eeeeee;strokeColor=#36393d;" vertex="1" parent="1">
          <mxGeometry x="302" y="1161" width="390" height="75" as="geometry" />
        </mxCell>
        <mxCell id="V7aKo0qsAvX8QTe993iU-337" value="" style="endArrow=classic;html=1;rounded=0;exitX=1;exitY=0.5;exitDx=0;exitDy=0;entryX=0;entryY=1;entryDx=0;entryDy=0;dashed=1;" edge="1" parent="1" source="V7aKo0qsAvX8QTe993iU-336" target="V7aKo0qsAvX8QTe993iU-313">
          <mxGeometry width="50" height="50" relative="1" as="geometry">
            <mxPoint x="750" y="1241" as="sourcePoint" />
            <mxPoint x="800" y="1191" as="targetPoint" />
          </mxGeometry>
        </mxCell>
        <mxCell id="V7aKo0qsAvX8QTe993iU-338" value="" style="shape=image;verticalLabelPosition=bottom;labelBackgroundColor=default;verticalAlign=top;aspect=fixed;imageAspect=0;image=data:image/png,iVBORw0KGgoAAAANSUhEUgAAAZAAAAGQCAAAAACl1GkQAAAABGdBTUEAALGPC/xhBQAAAAlwSFlzAAAuIwAALiMBeKU/dgAAAAd0SU1FB+UIDQoTB7pb4moAAAFTSURBVHic7dkxasRAEEXBsfH9j7w42MCB5UgG8R9VJ2h40zMCnQMAAAAAAAAAAAAAAAAAAAAAAAAAAAAAAAAAAAAAAAAAAAAAAAAAAEDI6/X0BLd8PD3A/3rH+Hx4ijuWZ/9teznOObEggR6pIIUepSCJHqEgjR6dIJEemSCVHpUgmR6RIJ0ejSChHokgpR6JICmBIKkFOV9PD3BXK8f+htR6rAfJ9RgP0usxHiRo+hfu9YJsn7Hhr6zgfXWWj1Ozx+6V9WeP3SN2ztkdP7ofs0GyPZYf9UujB+zH5htytSDzKd4SGxJpAQAAAAAAAAAAAAAAAAAAAAAAAAAAAAAAAAAAAAAAAAAAAAAAAAAAAAAAAAAAAAAAAAAAAAAAAAAAAAAAAAAAAAAAAAAAAAAAAAAAAAAAAAAAAAAAAAAAAAAAAAAAAAAAAAAAAAAAAAAATPkGqzkaFUPrCuIAAAAASUVORK5CYII=;" vertex="1" parent="1">
          <mxGeometry x="863.0049632352941" y="787.6586397058824" width="83" height="83" as="geometry" />
        </mxCell>
        <mxCell id="V7aKo0qsAvX8QTe993iU-339" value="" style="shape=image;verticalLabelPosition=bottom;labelBackgroundColor=default;verticalAlign=top;aspect=fixed;imageAspect=0;image=data:image/png,iVBORw0KGgoAAAANSUhEUgAAAZAAAAGQCAAAAACl1GkQAAAEJ0lEQVR4nO3aUU4bURBFwQdi/0uGfJiQBAYSiUg+3apaQV+dsefDfng5lDze+wD+JEiMIDGCxAgSI0iMIDGCxAgSI0iMIDGCxAgSI0iMIDGCxAgSI0iMIDGCxAgSI0iMIDGCxAgSI0iMIDGCxAgSI0iMIDGCxAgSI0iMIDGCxAgSI0iMIDGCxAgSI0iMIDGCxAgSI0iMIDGCxAgSI0iMIDGCxAgSI0iMIDGCxAgSI0iMIDGCxAgSI0iMIDGCxAgSI0iMIDGCxAgSI0iMIDGCxAgSI0iMIDGCxAgSI0iMIDGCxAgSI0iMIDGCxAgSI0iMIDGCxAgSI0iMIDGCxAgSI0iMIDGCxAgSI0iMIDGCxOwL8jh70sPLvS/4r24xnu98xXfMfpzeW7BmwYRfNozZsOGnFVtWjLjZMWXHinPWLFkyY88QO2KWDFky42xZsmPFOWfJlBUjXm3YsmHDm1VjNlgQZMGE3zzd+4Dv2pVj/p7p938wfNDw8y/MXjT7+ksLJ802+qV+/TRN/gF3dJCdH+65q+Ze/qWxsz49fPY31tggU+/+q6HDhp79Dwa/1C8N/8KaGuTqAzI+xc3MIO8saXHOWfff3vn2vh2HEiRGkBhBYgSJESRGkBhBYgSJESRGkBhBYgSJESRGkBhBYgSJESRGkBhBYgSJESRGkBhBYgSJESRGkBhBYgSJESRGkBhBYgSJESRGkBhBYgSJESRGkBhBYgSJESRGkBhBYgSJESRGkBhBYgSJESRGkBhBYgSJESRGkBhBYgSJESRGkBhBYgSJESRGkBhBYgSJESRGkBhBYgSJESRGkBhBYgSJESRGkBhBYgSJESRGkBhBYgSJESRGkBhBYgSJESRGkBhBYgSJESRGkBhBYgSJESRGkBhBYgSJESRGkBhBYgSJESRGkBhBYgSJESRGkBhBYgSJESRGkBhBYgSJESRGkBhBYgSJESRGkBhBYgSJESRGkBhBYgSJESRGkBhBYgSJESRGkBhBYgSJESRGkBhBYgSJESRGkBhBYgSJESRGkBhBYgSJESRGkBhBYgSJESRGkBhBYgSJESRGkBhBYgSJESRGkBhBYgSJESRGkBhBYgSJESRGkBhBYgSJESRGkBhBYgSJESRGkBhBYgSJESRGkBhBYgSJESRGkBhBYgSJESRGkBhBYgSJESRGkBhBYgSJESRGkBhBYgSJESRGkBhBYgSJESRGkBhBYgSJESRGkBhBYgSJESRGkBhBYgSJESRGkBhBYgSJESRGkBhBYgSJESRGkBhBYgSJESRGkBhBYgSJESRGkBhBYgSJESRGkBhBYgSJESRGkBhBYgSJESRGkBhBYgSJESRGkBhBYgSJESRGkBhBYgSJESRGkBhBYgSJESRGkBhBYgSJESRGkBhBYgSJESRGkBhBYgSJ+QHy5AxPb0em0AAAAABJRU5ErkJggg==;" vertex="1" parent="1">
          <mxGeometry x="863.0049632352941" y="672.997463235294" width="83" height="83" as="geometry" />
        </mxCell>
        <mxCell id="V7aKo0qsAvX8QTe993iU-340" value="Text" style="text;html=1;align=center;verticalAlign=middle;whiteSpace=wrap;rounded=0;" vertex="1" parent="1">
          <mxGeometry x="650" y="1062" width="60" height="30" as="geometry" />
        </mxCell>
        <mxCell id="V7aKo0qsAvX8QTe993iU-341" value="&lt;b&gt;mask&lt;/b&gt;" style="text;html=1;align=center;verticalAlign=middle;whiteSpace=wrap;rounded=0;" vertex="1" parent="1">
          <mxGeometry x="868" y="870.66" width="60" height="30" as="geometry" />
        </mxCell>
        <mxCell id="V7aKo0qsAvX8QTe993iU-342" value="&lt;b&gt;1 - mask&lt;/b&gt;" style="text;html=1;align=center;verticalAlign=middle;whiteSpace=wrap;rounded=0;" vertex="1" parent="1">
          <mxGeometry x="868" y="648" width="60" height="30" as="geometry" />
        </mxCell>
      </root>
    </mxGraphModel>
  </diagram>
</mxfile>
